<svg width="48" height="49" viewBox="0 0 48 49" fill="none" xmlns="http://www.w3.org/2000/svg">
<path d="M19.5 6.5V18.0875C19.4982 18.3572 19.4272 18.6219 19.2937 18.8563L7.36874 38.7312C7.2334 38.958 7.16032 39.2164 7.15687 39.4805C7.15342 39.7445 7.21972 40.0047 7.34909 40.2349C7.47845 40.4651 7.66629 40.6571 7.89361 40.7914C8.12094 40.9258 8.3797 40.9977 8.64374 41H39.3562C39.6203 40.9977 39.879 40.9258 40.1064 40.7914C40.3337 40.6571 40.5215 40.4651 40.6509 40.2349C40.7803 40.0047 40.8466 39.7445 40.8431 39.4805C40.8397 39.2164 40.7666 38.958 40.6312 38.7312L28.7062 18.8563C28.5728 18.6219 28.5018 18.3572 28.5 18.0875V6.5" stroke="#001973" stroke-width="2" stroke-linecap="round" stroke-linejoin="round"/>
<path d="M16.5 6.5H31.5" stroke="#001973" stroke-width="2" stroke-linecap="round" stroke-linejoin="round"/>
<path d="M11.7375 31.4376C13.95 29.8064 17.7563 28.8876 24 32.0001C30.6938 35.3564 34.5938 34.0251 36.7313 32.2064" stroke="#001973" stroke-width="2" stroke-linecap="round" stroke-linejoin="round"/>
</svg>
