<svg width="48" height="49" viewBox="0 0 48 49" fill="none" xmlns="http://www.w3.org/2000/svg">
<path fill-rule="evenodd" clip-rule="evenodd" d="M36.9228 21.5C37.4751 21.5 37.9228 21.9477 37.9228 22.5C37.9228 23.8228 37.9425 25.192 37.962 26.5465C37.9843 28.0925 38.0062 26.6193 37.9983 28.036C37.9831 30.7549 37.8624 33.3418 37.4203 35.5818C36.9793 37.8163 36.1986 39.8134 34.7794 41.2537C33.3307 42.7238 31.3311 43.5 28.7032 43.5C24.3102 43.5 21.8273 41.8632 20.4727 40.0782C19.8121 39.2078 19.4478 38.3388 19.2478 37.6859C19.1476 37.3585 19.0876 37.082 19.0522 36.8816C19.0344 36.7813 19.0227 36.6995 19.0152 36.6395C19.0115 36.6095 19.0087 36.5849 19.0068 36.566L19.0045 36.542L19.0037 36.5334L19.0035 36.5299L19.0033 36.5284C19.0033 36.5284 19.0032 36.527 20 36.4474L19.0032 36.527L18.9236 35.5302L20.9172 35.3709L20.9963 36.3615L20.9965 36.3635C20.9969 36.3675 20.9979 36.3769 20.9997 36.3912C21.0033 36.4198 21.0101 36.4681 21.0216 36.5333C21.0447 36.6638 21.0867 36.8602 21.1602 37.1003C21.3078 37.5822 21.578 38.2264 22.0658 38.8692C23.0079 40.1105 24.8765 41.5 28.7032 41.5C30.9103 41.5 32.3556 40.8639 33.3548 39.8499C34.3833 38.8061 35.0531 37.2473 35.4582 35.1945C35.8622 33.1473 35.9833 30.7155 35.9984 28.0248C36.0065 26.571 35.9849 28.1161 35.9628 26.622C35.943 25.2884 35.9228 23.9235 35.9228 22.5C35.9228 21.9477 36.3705 21.5 36.9228 21.5Z" fill="#001973"/>
<path fill-rule="evenodd" clip-rule="evenodd" d="M23.0033 11.9695C23.0036 11.9695 23.0032 11.9729 23.0011 11.9797C23.0019 11.9729 23.003 11.9695 23.0033 11.9695ZM22.9934 12C22.9726 11.9519 22.9117 11.8471 22.7451 11.686C22.4319 11.383 21.8739 11.0181 21.0209 10.6691C19.3247 9.97522 16.8435 9.5 14 9.5C11.1565 9.5 8.67526 9.97522 6.97909 10.6691C6.12611 11.0181 5.5681 11.383 5.25487 11.686C5.08832 11.8471 5.02743 11.9519 5.0066 12C5.02743 12.0481 5.08832 12.1529 5.25487 12.314C5.5681 12.617 6.12611 12.9819 6.97909 13.3309C8.67526 14.0248 11.1565 14.5 14 14.5C16.8435 14.5 19.3247 14.0248 21.0209 13.3309C21.8739 12.9819 22.4319 12.617 22.7451 12.314C22.9117 12.1529 22.9726 12.0481 22.9934 12ZM4.9967 11.9695C4.99702 11.9695 4.99807 11.9729 4.99891 11.9797C4.9968 11.9729 4.99638 11.9695 4.9967 11.9695ZM4.9967 12.0305C4.99638 12.0305 4.9968 12.0271 4.99891 12.0203C4.99807 12.0271 4.99702 12.0305 4.9967 12.0305ZM23.0011 12.0203C23.0032 12.0271 23.0036 12.0305 23.0033 12.0305C23.003 12.0305 23.0019 12.0271 23.0011 12.0203ZM14 16.5C20.0751 16.5 25 14.4853 25 12C25 9.51472 20.0751 7.5 14 7.5C7.92487 7.5 3 9.51472 3 12C3 14.4853 7.92487 16.5 14 16.5Z" fill="#001973"/>
<path d="M12 35.2101L5 33.4089V15.7899L12 17.5911V35.2101Z" stroke="#001973" stroke-width="2"/>
<path fill-rule="evenodd" clip-rule="evenodd" d="M25 12.5C25 12.5 24.306 13.0138 23 13.6161C21.1501 14.4692 18.0724 15.5 14 15.5C9.84407 15.5 6.815 14.4958 5 13.6494C3.6779 13.0328 3 12.5 3 12.5V34.5C3 34.5 6.47368 37.5 14 37.5C21.5263 37.5 25 34.5 25 34.5V32.4381C24.6724 32.479 24.3387 32.5 24 32.5C23.6613 32.5 23.3276 32.479 23 32.4381V33.4432C22.651 33.6473 22.1712 33.8976 21.5565 34.1525C19.9799 34.806 17.4896 35.5 14 35.5C10.5104 35.5 8.02005 34.806 6.44352 34.1525C5.82878 33.8976 5.34902 33.6473 5 33.4432V15.8312L5.05561 15.8538C7.11934 16.6895 10.1236 17.5 14 17.5C17.7658 17.5 20.7672 16.6864 22.8458 15.8578C22.8978 15.8371 22.9492 15.8164 23 15.7957V16.5619C23.3276 16.521 23.6613 16.5 24 16.5C24.3387 16.5 24.6724 16.521 25 16.5619V12.5Z" fill="#001973"/>
<path fill-rule="evenodd" clip-rule="evenodd" d="M24 30.5C27.3137 30.5 30 27.8137 30 24.5C30 21.1863 27.3137 18.5 24 18.5C20.6863 18.5 18 21.1863 18 24.5C18 27.8137 20.6863 30.5 24 30.5ZM24 32.5C28.4183 32.5 32 28.9183 32 24.5C32 20.0817 28.4183 16.5 24 16.5C19.5817 16.5 16 20.0817 16 24.5C16 28.9183 19.5817 32.5 24 32.5Z" fill="#001973"/>
<path d="M26 24.5C26 25.6046 25.1046 26.5 24 26.5C22.8954 26.5 22 25.6046 22 24.5C22 23.3954 22.8954 22.5 24 22.5C25.1046 22.5 26 23.3954 26 24.5Z" fill="#001973"/>
<path d="M23 20.5C23 19.9477 23.4477 19.5 24 19.5C24.5523 19.5 25 19.9477 25 20.5V23.5C25 24.0523 24.5523 24.5 24 24.5C23.4477 24.5 23 24.0523 23 23.5V20.5Z" fill="#001973"/>
<path fill-rule="evenodd" clip-rule="evenodd" d="M38.0396 20.2624C38.5973 19.1469 39 17.466 39 15.5C39 13.534 38.5973 11.8531 38.0396 10.7376C37.761 10.1804 37.4809 9.83804 37.2653 9.65562C37.1621 9.56834 37.0881 9.52968 37.0486 9.51352C37.0291 9.50555 37.0168 9.50248 37.0109 9.50128C37.0052 9.50013 37.0021 9.5 37 9.5C36.9979 9.5 36.9948 9.50013 36.9891 9.50128C36.9832 9.50248 36.9709 9.50555 36.9514 9.51352C36.9119 9.52968 36.8379 9.56834 36.7347 9.65562C36.5191 9.83804 36.239 10.1804 35.9604 10.7376C35.4027 11.8531 35 13.534 35 15.5C35 17.466 35.4027 19.1469 35.9604 20.2624C36.239 20.8196 36.5191 21.162 36.7347 21.3444C36.8379 21.4317 36.9119 21.4703 36.9514 21.4865C36.9709 21.4945 36.9832 21.4975 36.9891 21.4987C36.9948 21.4999 36.9979 21.5 37 21.5C37.0021 21.5 37.0052 21.4999 37.0109 21.4987C37.0168 21.4975 37.0291 21.4945 37.0486 21.4865C37.0881 21.4703 37.1621 21.4317 37.2653 21.3444C37.4809 21.162 37.761 20.8196 38.0396 20.2624ZM37 23.5C39.2091 23.5 41 19.9183 41 15.5C41 11.0817 39.2091 7.5 37 7.5C34.7909 7.5 33 11.0817 33 15.5C33 19.9183 34.7909 23.5 37 23.5Z" fill="#001973"/>
<path fill-rule="evenodd" clip-rule="evenodd" d="M38.0396 20.2624C38.5973 19.1469 39 17.466 39 15.5C39 13.534 38.5973 11.8531 38.0396 10.7376C37.761 10.1804 37.4809 9.83804 37.2653 9.65562C37.1621 9.56834 37.0881 9.52968 37.0486 9.51352C37.0291 9.50555 37.0168 9.50248 37.0109 9.50128C37.0052 9.50013 37.0021 9.5 37 9.5C36.9979 9.5 36.9948 9.50013 36.9891 9.50128C36.9832 9.50248 36.9709 9.50555 36.9514 9.51352C36.9119 9.52968 36.8379 9.56834 36.7347 9.65562C36.5191 9.83804 36.239 10.1804 35.9604 10.7376C35.4027 11.8531 35 13.534 35 15.5C35 17.466 35.4027 19.1469 35.9604 20.2624C36.239 20.8196 36.5191 21.162 36.7347 21.3444C36.8379 21.4317 36.9119 21.4703 36.9514 21.4865C36.9709 21.4945 36.9832 21.4975 36.9891 21.4987C36.9948 21.4999 36.9979 21.5 37 21.5C37.0021 21.5 37.0052 21.4999 37.0109 21.4987C37.0168 21.4975 37.0291 21.4945 37.0486 21.4865C37.0881 21.4703 37.1621 21.4317 37.2653 21.3444C37.4809 21.162 37.761 20.8196 38.0396 20.2624ZM37 23.5C39.2091 23.5 41 19.9183 41 15.5C41 11.0817 39.2091 7.5 37 7.5C34.7909 7.5 33 11.0817 33 15.5C33 19.9183 34.7909 23.5 37 23.5Z" fill="#001973"/>
</svg>
