<svg width="128" height="128" viewBox="0 0 128 128" fill="none" xmlns="http://www.w3.org/2000/svg">
<path d="M16.9067 39.6797L64 66.9329L110.773 39.8395" stroke="#BABABA" stroke-width="1.5" stroke-linecap="round" stroke-linejoin="round"/>
<path d="M64 115.256V66.8828" stroke="#BABABA" stroke-width="1.5" stroke-linecap="round" stroke-linejoin="round"/>
<path d="M115.253 48.9041V79.0909C115.253 79.3576 115.253 79.5707 115.2 79.8373C111.467 76.584 106.667 74.6642 101.333 74.6642C96.3198 74.6642 91.6798 76.4242 87.9998 79.3575C83.0932 83.2509 79.9998 89.2775 79.9998 95.9975C79.9998 99.9975 81.1198 103.784 83.0931 106.984C83.5731 107.837 84.1598 108.638 84.7998 109.384L75.0399 114.771C68.9599 118.184 59.0398 118.184 52.9598 114.771L24.4798 98.9842C18.0265 95.4108 12.7466 86.4509 12.7466 79.0909V48.9041C12.7466 41.5441 18.0265 32.5842 24.4798 29.0108L52.9598 13.2241C59.0398 9.81073 68.9599 9.81073 75.0399 13.2241L103.52 29.0108C109.973 32.5842 115.253 41.5441 115.253 48.9041Z" stroke="#BABABA" stroke-width="1.5" stroke-linecap="round" stroke-linejoin="round"/>
<path d="M122.667 95.9974C122.667 99.9974 121.547 103.784 119.573 106.984C118.453 108.904 117.013 110.611 115.36 111.997C111.627 115.357 106.72 117.331 101.333 117.331C93.5467 117.331 86.7733 113.171 83.0933 106.984C81.1199 103.784 80 99.9974 80 95.9974C80 89.2774 83.0933 83.2508 88 79.3574C91.68 76.4241 96.32 74.6641 101.333 74.6641C113.12 74.6641 122.667 84.2107 122.667 95.9974Z" stroke="#BABABA" stroke-width="1.5" stroke-miterlimit="10" stroke-linecap="round" stroke-linejoin="round"/>
<path d="M107.04 101.542L95.7334 90.2891" stroke="#BABABA" stroke-width="1.5" stroke-miterlimit="10" stroke-linecap="round" stroke-linejoin="round"/>
<path d="M106.933 90.4531L95.6265 101.706" stroke="#BABABA" stroke-width="1.5" stroke-miterlimit="10" stroke-linecap="round" stroke-linejoin="round"/>
</svg>
