<svg width="24" height="25" viewBox="0 0 24 25" fill="none" xmlns="http://www.w3.org/2000/svg">
<path d="M3.17004 7.94141L12 13.0514L20.77 7.97137" stroke="#001973" stroke-width="1.5" stroke-linecap="round" stroke-linejoin="round"/>
<path d="M12 22.113V13.043" stroke="#001973" stroke-width="1.5" stroke-linecap="round" stroke-linejoin="round"/>
<path d="M9.92999 2.98L4.59 5.95003C3.38 6.62003 2.39001 8.30001 2.39001 9.68001V15.33C2.39001 16.71 3.38 18.39 4.59 19.06L9.92999 22.03C11.07 22.66 12.94 22.66 14.08 22.03L19.42 19.06C20.63 18.39 21.62 16.71 21.62 15.33V9.68001C21.62 8.30001 20.63 6.62003 19.42 5.95003L14.08 2.98C12.93 2.34 11.07 2.34 9.92999 2.98Z" stroke="#001973" stroke-width="1.5" stroke-linecap="round" stroke-linejoin="round"/>
<path d="M17 13.7416V10.0816L7.51001 4.60156" stroke="#001973" stroke-width="1.5" stroke-linecap="round" stroke-linejoin="round"/>
</svg>
