<svg width="16" height="17" viewBox="0 0 16 17" fill="none" xmlns="http://www.w3.org/2000/svg">
<path d="M2.1134 5.46094L8.00006 8.86759L13.8467 5.48092" stroke="#6F7E80" stroke-width="1.5" stroke-linecap="round" stroke-linejoin="round"/>
<path d="M8 14.906V8.85938" stroke="#6F7E80" stroke-width="1.5" stroke-linecap="round" stroke-linejoin="round"/>
<path d="M6.62004 2.15594L3.06004 4.13596C2.25337 4.58263 1.59338 5.70261 1.59338 6.62261V10.3893C1.59338 11.3093 2.25337 12.4293 3.06004 12.8759L6.62004 14.856C7.38004 15.276 8.6267 15.276 9.3867 14.856L12.9467 12.8759C13.7534 12.4293 14.4134 11.3093 14.4134 10.3893V6.62261C14.4134 5.70261 13.7534 4.58263 12.9467 4.13596L9.3867 2.15594C8.62003 1.72927 7.38004 1.72927 6.62004 2.15594Z" stroke="#6F7E80" stroke-width="1.5" stroke-linecap="round" stroke-linejoin="round"/>
<path d="M11.3334 9.32772V6.88774L5.00671 3.23438" stroke="#6F7E80" stroke-width="1.5" stroke-linecap="round" stroke-linejoin="round"/>
</svg>
