<svg width="24" height="25" viewBox="0 0 24 25" fill="none" xmlns="http://www.w3.org/2000/svg">
<path d="M22 15.5C22 19.37 18.87 22.5 15 22.5L16.05 20.75" stroke="#001973" stroke-width="1.5" stroke-linecap="round" stroke-linejoin="round"/>
<path d="M2 9.5C2 5.63 5.13 2.5 9 2.5L7.95 4.25" stroke="#001973" stroke-width="1.5" stroke-linecap="round" stroke-linejoin="round"/>
<path d="M13.7 4.94922L17.6799 7.24921L21.6199 4.95923" stroke="#001973" stroke-width="1.5" stroke-linecap="round" stroke-linejoin="round"/>
<path d="M17.6799 11.3183V7.23828" stroke="#001973" stroke-width="1.5" stroke-linecap="round" stroke-linejoin="round"/>
<path d="M16.74 2.71L14.34 4.03996C13.8 4.33996 13.35 5.09995 13.35 5.71995V8.25999C13.35 8.87999 13.79 9.63998 14.34 9.93998L16.74 11.27C17.25 11.56 18.09 11.56 18.61 11.27L21.01 9.93998C21.55 9.63998 22 8.87999 22 8.25999V5.71995C22 5.09995 21.56 4.33996 21.01 4.03996L18.61 2.71C18.1 2.43 17.26 2.43 16.74 2.71Z" stroke="#001973" stroke-width="1.5" stroke-linecap="round" stroke-linejoin="round"/>
<path d="M2.34998 15.9492L6.31998 18.2492L10.27 15.9592" stroke="#001973" stroke-width="1.5" stroke-linecap="round" stroke-linejoin="round"/>
<path d="M6.31995 22.3183V18.2383" stroke="#001973" stroke-width="1.5" stroke-linecap="round" stroke-linejoin="round"/>
<path d="M5.39 13.71L2.99001 15.04C2.45001 15.34 2 16.0999 2 16.7199V19.26C2 19.88 2.44001 20.64 2.99001 20.94L5.39 22.27C5.9 22.56 6.73999 22.56 7.25999 22.27L9.66 20.94C10.2 20.64 10.65 19.88 10.65 19.26V16.7199C10.65 16.0999 10.21 15.34 9.66 15.04L7.25999 13.71C6.73999 13.43 5.9 13.43 5.39 13.71Z" stroke="#001973" stroke-width="1.5" stroke-linecap="round" stroke-linejoin="round"/>
</svg>
