<svg width="36" height="43" viewBox="0 0 36 43" fill="none" xmlns="http://www.w3.org/2000/svg">
<path fill-rule="evenodd" clip-rule="evenodd" d="M10.5882 2.11765H12.7059V0H6.35294V2.11765H8.47059V4.23529H6.1722C5.73618 3.00156 4.55951 2.11765 3.17647 2.11765C1.42216 2.11765 0 3.53981 0 5.29412C0 7.04848 1.42216 8.47059 3.17647 8.47059C4.55951 8.47059 5.73618 7.58668 6.1722 6.35294H8.47059V8.55847C5.46597 9.06247 3.17647 11.6756 3.17647 14.8235V41.2941C3.17647 41.8789 3.65051 42.3529 4.23529 42.3529H14.8235C15.4083 42.3529 15.8824 41.8789 15.8824 41.2941V14.8235C15.8824 11.6756 13.5929 9.06247 10.5882 8.55847V6.35294H15.8824V4.23529H10.5882V2.11765ZM9.52941 10.5882C7.19037 10.5882 5.29412 12.4845 5.29412 14.8235V16.9412H13.7647V14.8235C13.7647 12.4845 11.8685 10.5882 9.52941 10.5882ZM5.29412 40.2353V19.0588H13.7647V40.2353H5.29412ZM2.11765 5.29412C2.11765 4.70935 2.5917 4.23529 3.17647 4.23529C3.76126 4.23529 4.23529 4.70935 4.23529 5.29412C4.23529 5.87888 3.76126 6.35294 3.17647 6.35294C2.5917 6.35294 2.11765 5.87888 2.11765 5.29412ZM20.1176 18C20.1176 15.661 22.0139 13.7647 24.3529 13.7647C26.692 13.7647 28.5882 15.661 28.5882 18V24.3529C28.5882 26.692 26.692 28.5882 24.3529 28.5882C22.0139 28.5882 20.1176 26.692 20.1176 24.3529V18ZM24.3529 15.8824C23.1834 15.8824 22.2353 16.8304 22.2353 18V24.3529C22.2353 25.5225 23.1834 26.4706 24.3529 26.4706C25.5225 26.4706 26.4706 25.5225 26.4706 24.3529V18C26.4706 16.8304 25.5225 15.8824 24.3529 15.8824ZM32.8235 23.2941H29.6471V21.1765H32.8235C34.5779 21.1765 36 22.5986 36 24.3529C36 26.1073 34.5779 27.5294 32.8235 27.5294C32.2387 27.5294 31.7647 28.0034 31.7647 28.5882V29.6471H36V31.7647H30.7059C30.1211 31.7647 29.6471 31.2907 29.6471 30.7059V28.5882C29.6471 26.8339 31.0692 25.4118 32.8235 25.4118C33.4083 25.4118 33.8824 24.9377 33.8824 24.3529C33.8824 23.7682 33.4083 23.2941 32.8235 23.2941Z" fill="#001973"/>
</svg>
