<svg width="48" height="49" viewBox="0 0 48 49" fill="none" xmlns="http://www.w3.org/2000/svg">
<path d="M40.5 13.75H7.5C6.11929 13.75 5 14.8693 5 16.25V40.25C5 41.6307 6.11929 42.75 7.5 42.75H40.5C41.8807 42.75 43 41.6307 43 40.25V16.25C43 14.8693 41.8807 13.75 40.5 13.75Z" stroke="#001973" stroke-width="2" stroke-linecap="round" stroke-linejoin="round"/>
<path d="M31.5 14V11C31.5 10.2044 31.1839 9.44129 30.6213 8.87868C30.0587 8.31607 29.2956 8 28.5 8H19.5C18.7044 8 17.9413 8.31607 17.3787 8.87868C16.8161 9.44129 16.5 10.2044 16.5 11V14" stroke="#001973" stroke-width="2" stroke-linecap="round" stroke-linejoin="round"/>
<path d="M24 22.25V32.75" stroke="#001973" stroke-width="2" stroke-linecap="round" stroke-linejoin="round"/>
<path d="M29.25 27.5H18.75" stroke="#001973" stroke-width="2" stroke-linecap="round" stroke-linejoin="round"/>
</svg>
