<svg width="48" height="48" viewBox="0 0 48 48" fill="none" xmlns="http://www.w3.org/2000/svg">
<g clip-path="url(#clip0_931_22012)">
<path d="M44.9388 41.7249C45.2222 41.6682 45.4413 41.5666 45.4937 41.4169C45.552 41.2499 45.494 41.0642 45.3535 40.9566C45.2973 40.9138 44.7446 40.4968 43.7909 39.946C44.1978 39.9877 44.5683 40.0058 44.9041 40.0058C46.4982 40.0057 47.3199 39.6315 47.6262 39.4584C47.8124 39.3532 47.9261 39.2784 47.9784 39.1228C48.035 38.9549 47.9779 38.7695 47.8366 38.6623C47.7571 38.6019 46.6848 37.7996 44.889 36.9254C44.889 36.9254 45.2452 36.9043 45.3626 36.887C45.5458 36.8601 45.6964 36.7746 45.7533 36.6074C45.8103 36.4401 45.7547 36.2553 45.6148 36.1474C45.5319 36.0834 44.3525 35.1866 42.3732 34.2542L43.3406 33.9504C43.4975 33.9011 43.6101 33.7634 43.6274 33.5998C43.6447 33.4363 43.5632 33.278 43.42 33.1971C39.3788 30.9129 36.0777 30.651 30.6085 30.2169C29.9085 30.1613 29.1711 30.1028 28.3902 30.0369C22.0776 29.5034 18.0034 27.0523 17.5205 26.7488C17.2881 25.2243 16.9967 22.3334 16.7041 16.8608C16.421 11.5641 16.2759 6.39817 16.2745 6.34659C16.2682 6.11872 16.0789 5.94009 15.8503 5.94543C15.6225 5.95174 15.4429 6.14164 15.4492 6.36961C15.4506 6.42129 15.5959 11.5964 15.8797 16.9035C16.2495 23.8206 16.6155 26.6543 16.8877 27.8789C15.3638 27.1242 13.7372 26.5934 13.0742 26.3904C12.7724 24.5286 10.9322 12.8927 11.0189 6.65052C11.0221 6.42255 10.8399 6.23518 10.6119 6.23197C10.61 6.23197 10.608 6.23197 10.606 6.23197C10.3807 6.23197 10.1965 6.41303 10.1934 6.63906C10.0984 13.4772 12.2792 26.6476 12.3012 26.7798C12.3012 26.7798 12.3596 27.0738 12.317 27.2651C12.2223 27.691 11.374 28.6575 7.17505 29.5572C6.04587 29.7992 4.99945 30.1744 4.07387 30.6491C3.9947 30.6149 3.85881 30.5375 3.81957 30.3962C3.78188 30.2606 3.75352 29.7256 4.97012 28.536C7.79845 25.7706 7.69122 23.4661 7.67364 23.2446L6.90968 6.62585C6.89919 6.39807 6.70521 6.22158 6.47831 6.23246C6.25053 6.24295 6.07443 6.43605 6.08492 6.66383L6.84936 23.2909C6.84955 23.2962 6.85023 23.3047 6.85072 23.3101C6.85257 23.3307 6.99661 25.4002 4.39314 27.9457C3.27611 29.038 2.82832 29.9118 3.02424 30.6173C3.07805 30.8108 3.17674 30.9668 3.2932 31.0911C1.41775 32.2599 0.18629 33.8668 0.0188322 35.5614C-0.155911 37.3289 0.891868 38.839 2.8934 39.7046C3.59383 40.0073 4.42636 40.1609 5.36807 40.1609C7.8679 40.1609 10.9387 39.034 12.6974 37.6823C13.527 38.1568 16.6261 39.7637 19.5764 39.1567C22.0014 38.6572 26.6554 38.5493 35.0547 40.8702C38.398 41.794 40.776 42.0897 42.3831 42.0495C43.0609 42.0325 44.4248 41.8276 44.9388 41.7249ZM43.3541 36.2437C42.309 35.8232 41.1087 35.4276 39.7848 35.1314C39.7992 34.9535 39.945 34.5692 40.1678 34.2324C41.9346 34.8824 43.3146 35.6422 44.162 36.166L43.3541 36.2437ZM39.4061 37.9925C39.5415 37.5076 39.7224 36.657 39.5862 35.9324C40.3401 36.101 41.0542 36.305 41.7219 36.5281C41.5697 37.0775 41.374 37.9877 41.561 38.6912C41.5611 38.6912 40.3813 38.3802 39.4061 37.9925ZM20.568 35.669L17.6484 33.4714C18.2527 33.139 18.8262 32.7953 19.2564 32.4309C19.45 32.267 19.61 32.1015 19.7372 31.9346L22.157 33.7829C21.2309 34.5437 20.7427 35.2721 20.568 35.669ZM18.0759 38.4622C16.0924 38.4229 14.1851 37.5395 13.3573 37.1006C13.7114 36.7346 13.9573 36.362 14.061 35.9989C14.2662 35.2807 15.63 34.5483 16.8513 33.8996L19.6801 36.0792C18.6542 36.9648 18.2293 37.9829 18.0759 38.4622ZM38.6472 34.732C38.2803 34.6019 37.773 34.4834 37.1652 34.3755C37.2794 34.1042 37.3794 33.7579 37.3618 33.4082C38.0626 33.5625 38.7282 33.7476 39.3535 33.9504C39.1802 34.2208 39.0082 34.5601 38.9612 34.8925C38.8652 34.827 38.7607 34.7723 38.6472 34.732ZM36.5135 33.3045C36.6049 33.579 36.4486 33.9838 36.3164 34.2407C32.5149 33.6958 26.1514 33.4653 23.769 33.3952C23.8989 32.376 24.3816 32.0075 24.5022 31.9303C28.6891 32.0701 34.392 32.3705 36.1467 32.9932C36.4141 33.0881 36.484 33.2163 36.5135 33.3045ZM23.4272 31.8968C23.2142 32.2299 23.0194 32.6993 22.9442 33.3451L20.9699 31.8372C21.6043 31.8495 22.452 31.8685 23.4272 31.8968ZM22.9667 34.1993C24.3438 34.2344 35.6666 34.5505 38.371 35.5102C39.0181 35.7398 38.8019 37.0441 38.6143 37.7492C37.9687 37.5634 37.2873 37.3977 36.5722 37.2638C36.453 37.1609 36.3162 37.0799 36.1626 37.0254C33.6821 36.1453 24.8052 35.7966 21.5518 35.6966C21.774 35.3196 22.1965 34.7654 22.9667 34.1993ZM37.0593 38.2052C37.8407 38.3776 38.5793 38.5883 39.2678 38.8196C39.1566 39.3532 39.0214 40.2584 39.1919 40.9453C38.4741 40.8303 37.6774 40.6737 36.7973 40.4653C36.963 39.9237 37.1906 38.9793 37.0593 38.2052ZM30.5432 31.0402C35.668 31.4469 38.6625 31.6845 42.1575 33.4567L41.2235 33.75C39.9875 33.2472 38.5281 32.7774 36.8921 32.4701C36.7703 32.3726 36.6171 32.2841 36.4227 32.2151C34.5127 31.5373 28.4842 31.2289 24.2275 31.0928C24.2756 30.811 24.5574 30.5102 24.754 30.3403C25.8437 30.5676 27.0353 30.7511 28.3207 30.8597C29.1032 30.9258 29.8419 30.9844 30.5432 31.0402ZM17.7218 27.8249C18.7461 28.3902 20.8446 29.4042 23.8145 30.1278C23.6021 30.3972 23.4305 30.7219 23.3995 31.0678C21.8748 31.0243 20.666 31.0039 20.1008 30.996C20.1055 30.7862 20.0608 30.5752 19.9646 30.3634C19.6476 29.6659 18.8821 29.0239 17.9631 28.4657C17.963 28.4658 17.775 28.3632 17.7218 27.8249ZM3.22113 38.9467C1.54694 38.2227 0.701487 37.0493 0.840485 35.6427C1.02941 33.7317 3.14653 31.265 7.34834 30.3646C10.721 29.6418 12.6605 28.7009 13.1128 27.5677C13.1512 27.4717 13.1767 27.3801 13.1924 27.2937C15.0718 27.9052 18.571 29.2929 19.2129 30.7052C19.5546 31.4568 18.3096 32.1902 16.5134 33.1443C15.5829 33.6385 14.6845 34.116 14.0597 34.6582H10.4586C10.2307 34.6582 10.0458 34.843 10.0458 35.071C10.0458 35.299 10.2307 35.4838 10.4586 35.4838H13.38C13.3334 35.5775 13.2954 35.6735 13.2673 35.7722C13.2118 35.9663 13.074 36.1814 12.8709 36.4066H6.52493C6.29696 36.4066 6.11212 36.5914 6.11212 36.8194C6.11212 37.0475 6.29696 37.2322 6.52493 37.2322H11.8917C10.3317 38.3045 7.72181 39.3354 5.36807 39.3354C4.53972 39.3353 3.81734 39.2046 3.22113 38.9467ZM19.4099 38.3479C19.2644 38.3779 19.118 38.3998 18.9713 38.4179C19.176 37.9254 19.6129 37.1438 20.4833 36.4929C21.8656 36.528 33.1827 36.8441 35.8866 37.8035C36.0143 37.8488 36.1033 37.9336 36.1666 38.0703C36.397 38.5677 36.2109 39.57 35.9944 40.2662C35.7594 40.2055 35.5206 40.1424 35.2745 40.0743C28.5009 38.2027 23.015 37.6057 19.4099 38.3479ZM40.1567 41.0964C39.8997 41.0434 39.8706 40.0608 40.0538 39.0997C41.8864 39.7916 43.2924 40.5923 44.0954 41.1005C43.3994 41.2209 42.0244 41.4822 40.1567 41.0964ZM42.5944 38.9297C42.2005 38.7994 42.3158 37.6687 42.5133 36.8089C44.4876 37.5508 45.9724 38.4181 46.7437 38.9151C46.1369 39.0942 44.5342 39.5718 42.5944 38.9297Z" fill="#001973"/>
<path d="M14.5376 21.3508C14.5517 21.3508 14.5661 21.3501 14.5806 21.3486C14.8073 21.3251 14.9721 21.1223 14.9487 20.8955C14.5173 16.7252 13.7916 6.58693 13.7843 6.48504C13.7681 6.25765 13.5707 6.0864 13.3431 6.10263C13.1157 6.11885 12.9445 6.31642 12.9608 6.54381C12.9681 6.64589 13.6947 16.7972 14.1275 20.9805C14.1494 21.1928 14.3287 21.3508 14.5376 21.3508Z" fill="#001973"/>
</g>
<defs>
<clipPath id="clip0_931_22012">
<rect width="48" height="48" fill="white"/>
</clipPath>
</defs>
</svg>
