<svg width="48" height="37" viewBox="0 0 48 37" fill="none" xmlns="http://www.w3.org/2000/svg">
<path d="M44.9388 36.2249C45.2222 36.1682 45.4413 36.0666 45.4937 35.9169C45.552 35.7499 45.494 35.5642 45.3535 35.4566C45.2973 35.4138 44.7446 34.9968 43.7909 34.446C44.1978 34.4877 44.5683 34.5058 44.9041 34.5058C46.4982 34.5057 47.3199 34.1315 47.6262 33.9584C47.8124 33.8532 47.9261 33.7784 47.9784 33.6228C48.035 33.4549 47.9779 33.2695 47.8366 33.1623C47.7571 33.1019 46.6848 32.2996 44.889 31.4254C44.889 31.4254 45.2452 31.4043 45.3626 31.387C45.5458 31.3601 45.6964 31.2746 45.7533 31.1074C45.8103 30.9401 45.7547 30.7553 45.6148 30.6474C45.5319 30.5834 44.3525 29.6866 42.3732 28.7542L43.3406 28.4504C43.4975 28.4011 43.6101 28.2634 43.6274 28.0998C43.6447 27.9363 43.5632 27.778 43.42 27.6971C39.3788 25.4129 36.0777 25.151 30.6085 24.7169C29.9085 24.6613 29.1711 24.6028 28.3902 24.5369C22.0776 24.0034 18.0034 21.5523 17.5205 21.2488C17.2881 19.7243 16.9967 16.8334 16.7041 11.3608C16.421 6.06412 16.2759 0.898169 16.2745 0.846591C16.2682 0.618716 16.0789 0.440087 15.8503 0.445429C15.6225 0.451743 15.4429 0.641639 15.4492 0.869612C15.4506 0.921287 15.5959 6.09637 15.8797 11.4035C16.2495 18.3206 16.6155 21.1543 16.8877 22.3789C15.3638 21.6242 13.7372 21.0934 13.0742 20.8904C12.7724 19.0286 10.9322 7.39271 11.0189 1.15052C11.0221 0.922549 10.8399 0.735179 10.6119 0.731973C10.61 0.731973 10.608 0.731973 10.606 0.731973C10.3807 0.731973 10.1965 0.91303 10.1934 1.13906C10.0984 7.97716 12.2792 21.1476 12.3012 21.2798C12.3012 21.2798 12.3596 21.5738 12.317 21.7651C12.2223 22.191 11.374 23.1575 7.17505 24.0572C6.04587 24.2992 4.99945 24.6744 4.07387 25.1491C3.9947 25.1149 3.85881 25.0375 3.81957 24.8962C3.78188 24.7606 3.75352 24.2256 4.97012 23.036C7.79845 20.2706 7.69122 17.9661 7.67364 17.7446L6.90968 1.12585C6.89919 0.898072 6.70521 0.72158 6.47831 0.732459C6.25053 0.742949 6.07443 0.936051 6.08492 1.16383L6.84936 17.7909C6.84955 17.7962 6.85023 17.8047 6.85072 17.8101C6.85257 17.8307 6.99661 19.9002 4.39314 22.4457C3.27611 23.538 2.82832 24.4118 3.02424 25.1173C3.07805 25.3108 3.17674 25.4668 3.2932 25.5911C1.41775 26.7599 0.18629 28.3668 0.0188322 30.0614C-0.155911 31.8289 0.891868 33.339 2.8934 34.2046C3.59383 34.5073 4.42636 34.6609 5.36807 34.6609C7.8679 34.6609 10.9387 33.534 12.6974 32.1823C13.527 32.6568 16.6261 34.2637 19.5764 33.6567C22.0014 33.1572 26.6554 33.0493 35.0547 35.3702C38.398 36.294 40.776 36.5897 42.3831 36.5495C43.0609 36.5325 44.4248 36.3276 44.9388 36.2249ZM43.3541 30.7437C42.309 30.3232 41.1087 29.9276 39.7848 29.6314C39.7992 29.4535 39.945 29.0692 40.1678 28.7324C41.9346 29.3824 43.3146 30.1422 44.162 30.666L43.3541 30.7437ZM39.4061 32.4925C39.5415 32.0076 39.7224 31.157 39.5862 30.4324C40.3401 30.601 41.0542 30.805 41.7219 31.0281C41.5697 31.5775 41.374 32.4877 41.561 33.1912C41.5611 33.1912 40.3813 32.8802 39.4061 32.4925ZM20.568 30.169L17.6484 27.9714C18.2527 27.639 18.8262 27.2953 19.2564 26.9309C19.45 26.767 19.61 26.6015 19.7372 26.4346L22.157 28.2829C21.2309 29.0437 20.7427 29.7721 20.568 30.169ZM18.0759 32.9622C16.0924 32.9229 14.1851 32.0395 13.3573 31.6006C13.7114 31.2346 13.9573 30.862 14.061 30.4989C14.2662 29.7807 15.63 29.0483 16.8513 28.3996L19.6801 30.5792C18.6542 31.4648 18.2293 32.4829 18.0759 32.9622ZM38.6472 29.232C38.2803 29.1019 37.773 28.9834 37.1652 28.8755C37.2794 28.6042 37.3794 28.2579 37.3618 27.9082C38.0626 28.0625 38.7282 28.2476 39.3535 28.4504C39.1802 28.7208 39.0082 29.0601 38.9612 29.3925C38.8652 29.327 38.7607 29.2723 38.6472 29.232ZM36.5135 27.8045C36.6049 28.079 36.4486 28.4838 36.3164 28.7407C32.5149 28.1958 26.1514 27.9653 23.769 27.8952C23.8989 26.876 24.3816 26.5075 24.5022 26.4303C28.6891 26.5701 34.392 26.8705 36.1467 27.4932C36.4141 27.5881 36.484 27.7163 36.5135 27.8045ZM23.4272 26.3968C23.2142 26.7299 23.0194 27.1993 22.9442 27.8451L20.9699 26.3372C21.6043 26.3495 22.452 26.3685 23.4272 26.3968ZM22.9667 28.6993C24.3438 28.7344 35.6666 29.0505 38.371 30.0102C39.0181 30.2398 38.8019 31.5441 38.6143 32.2492C37.9687 32.0634 37.2873 31.8977 36.5722 31.7638C36.453 31.6609 36.3162 31.5799 36.1626 31.5254C33.6821 30.6453 24.8052 30.2966 21.5518 30.1966C21.774 29.8196 22.1965 29.2654 22.9667 28.6993ZM37.0593 32.7052C37.8407 32.8776 38.5793 33.0883 39.2678 33.3196C39.1566 33.8532 39.0214 34.7584 39.1919 35.4453C38.4741 35.3303 37.6774 35.1737 36.7973 34.9653C36.963 34.4237 37.1906 33.4793 37.0593 32.7052ZM30.5432 25.5402C35.668 25.9469 38.6625 26.1845 42.1575 27.9567L41.2235 28.25C39.9875 27.7472 38.5281 27.2774 36.8921 26.9701C36.7703 26.8726 36.6171 26.7841 36.4227 26.7151C34.5127 26.0373 28.4842 25.7289 24.2275 25.5928C24.2756 25.311 24.5574 25.0102 24.754 24.8403C25.8437 25.0676 27.0353 25.2511 28.3207 25.3597C29.1032 25.4258 29.8419 25.4844 30.5432 25.5402ZM17.7218 22.3249C18.7461 22.8902 20.8446 23.9042 23.8145 24.6278C23.6021 24.8972 23.4305 25.2219 23.3995 25.5678C21.8748 25.5243 20.666 25.5039 20.1008 25.496C20.1055 25.2862 20.0608 25.0752 19.9646 24.8634C19.6476 24.1659 18.8821 23.5239 17.9631 22.9657C17.963 22.9658 17.775 22.8632 17.7218 22.3249ZM3.22113 33.4467C1.54694 32.7227 0.701487 31.5493 0.840485 30.1427C1.02941 28.2317 3.14653 25.765 7.34834 24.8646C10.721 24.1418 12.6605 23.2009 13.1128 22.0677C13.1512 21.9717 13.1767 21.8801 13.1924 21.7937C15.0718 22.4052 18.571 23.7929 19.2129 25.2052C19.5546 25.9568 18.3096 26.6902 16.5134 27.6443C15.5829 28.1385 14.6845 28.616 14.0597 29.1582H10.4586C10.2307 29.1582 10.0458 29.343 10.0458 29.571C10.0458 29.799 10.2307 29.9838 10.4586 29.9838H13.38C13.3334 30.0775 13.2954 30.1735 13.2673 30.2722C13.2118 30.4663 13.074 30.6814 12.8709 30.9066H6.52493C6.29696 30.9066 6.11212 31.0914 6.11212 31.3194C6.11212 31.5475 6.29696 31.7322 6.52493 31.7322H11.8917C10.3317 32.8045 7.72181 33.8354 5.36807 33.8354C4.53972 33.8353 3.81734 33.7046 3.22113 33.4467ZM19.4099 32.8479C19.2644 32.8779 19.118 32.8998 18.9713 32.9179C19.176 32.4254 19.6129 31.6438 20.4833 30.9929C21.8656 31.028 33.1827 31.3441 35.8866 32.3035C36.0143 32.3488 36.1033 32.4336 36.1666 32.5703C36.397 33.0677 36.2109 34.07 35.9944 34.7662C35.7594 34.7055 35.5206 34.6424 35.2745 34.5743C28.5009 32.7027 23.015 32.1057 19.4099 32.8479ZM40.1567 35.5964C39.8997 35.5434 39.8706 34.5608 40.0538 33.5997C41.8864 34.2916 43.2924 35.0923 44.0954 35.6005C43.3994 35.7209 42.0244 35.9822 40.1567 35.5964ZM42.5944 33.4297C42.2005 33.2994 42.3158 32.1687 42.5133 31.3089C44.4876 32.0508 45.9724 32.9181 46.7437 33.4151C46.1369 33.5942 44.5342 34.0718 42.5944 33.4297Z" fill="#001973"/>
</svg>
