<svg width="38" height="36" viewBox="0 0 38 36" fill="none" xmlns="http://www.w3.org/2000/svg">
<path fill-rule="evenodd" clip-rule="evenodd" d="M33.9228 14C34.4751 14 34.9228 14.4477 34.9228 15C34.9228 16.3228 34.9425 17.692 34.962 19.0465C34.9843 20.5925 35.0062 19.1193 34.9983 20.536C34.9831 23.2549 34.8624 25.8418 34.4203 28.0818C33.9793 30.3163 33.1986 32.3134 31.7794 33.7537C30.3307 35.2238 28.3311 36 25.7032 36C21.3102 36 18.8273 34.3632 17.4727 32.5782C16.8121 31.7078 16.4478 30.8388 16.2478 30.1859C16.1476 29.8585 16.0876 29.582 16.0522 29.3816C16.0344 29.2813 16.0227 29.1995 16.0152 29.1395C16.0115 29.1095 16.0087 29.0849 16.0068 29.066L16.0045 29.042L16.0037 29.0334L16.0035 29.0299L16.0033 29.0284C16.0033 29.0284 16.0032 29.027 17 28.9474L16.0032 29.027L15.9236 28.0302L17.9172 27.8709L17.9963 28.8615L17.9965 28.8635C17.9969 28.8675 17.9979 28.8769 17.9997 28.8912C18.0033 28.9198 18.0101 28.9681 18.0216 29.0333C18.0447 29.1638 18.0867 29.3602 18.1602 29.6003C18.3078 30.0822 18.578 30.7264 19.0658 31.3692C20.0079 32.6105 21.8765 34 25.7032 34C27.9103 34 29.3556 33.3639 30.3548 32.3499C31.3833 31.3061 32.0531 29.7473 32.4582 27.6945C32.8622 25.6473 32.9833 23.2155 32.9984 20.5248C33.0065 19.071 32.9849 20.6161 32.9628 19.122C32.943 17.7884 32.9228 16.4235 32.9228 15C32.9228 14.4477 33.3705 14 33.9228 14Z" fill="#001973"/>
<path fill-rule="evenodd" clip-rule="evenodd" d="M20.0033 4.4695C20.0036 4.4695 20.0032 4.4729 20.0011 4.4797C20.0019 4.4729 20.003 4.4695 20.0033 4.4695ZM19.9934 4.5C19.9726 4.4519 19.9117 4.3471 19.7451 4.186C19.4319 3.883 18.8739 3.5181 18.0209 3.1691C16.3247 2.47522 13.8435 2 11 2C8.1565 2 5.67526 2.47522 3.97909 3.1691C3.12611 3.5181 2.5681 3.883 2.25487 4.186C2.08832 4.3471 2.02743 4.4519 2.0066 4.5C2.02743 4.5481 2.08832 4.6529 2.25487 4.814C2.5681 5.117 3.12611 5.4819 3.97909 5.8309C5.67526 6.5248 8.1565 7 11 7C13.8435 7 16.3247 6.5248 18.0209 5.8309C18.8739 5.4819 19.4319 5.117 19.7451 4.814C19.9117 4.6529 19.9726 4.5481 19.9934 4.5ZM1.9967 4.4695C1.99702 4.4695 1.99807 4.4729 1.99891 4.4797C1.9968 4.4729 1.99638 4.4695 1.9967 4.4695ZM1.9967 4.5305C1.99638 4.5305 1.9968 4.5271 1.99891 4.5203C1.99807 4.5271 1.99702 4.5305 1.9967 4.5305ZM20.0011 4.5203C20.0032 4.5271 20.0036 4.5305 20.0033 4.5305C20.003 4.5305 20.0019 4.5271 20.0011 4.5203ZM11 9C17.0751 9 22 6.9853 22 4.5C22 2.01472 17.0751 0 11 0C4.92487 0 0 2.01472 0 4.5C0 6.9853 4.92487 9 11 9Z" fill="#001973"/>
<path d="M9 27.7101L2 25.9089V8.28989L9 10.0911V27.7101Z" stroke="#001973" stroke-width="2"/>
<path fill-rule="evenodd" clip-rule="evenodd" d="M22 5C22 5 21.306 5.5138 20 6.1161C18.1501 6.9692 15.0724 8 11 8C6.84407 8 3.815 6.9958 2 6.1494C0.6779 5.5328 0 5 0 5V27C0 27 3.47368 30 11 30C18.5263 30 22 27 22 27V24.9381C21.6724 24.979 21.3387 25 21 25C20.6613 25 20.3276 24.979 20 24.9381V25.9432C19.651 26.1473 19.1712 26.3976 18.5565 26.6525C16.9799 27.306 14.4896 28 11 28C7.5104 28 5.02005 27.306 3.44352 26.6525C2.82878 26.3976 2.34902 26.1473 2 25.9432V8.3312L2.05561 8.3538C4.11934 9.1895 7.1236 10 11 10C14.7658 10 17.7672 9.1864 19.8458 8.3578C19.8978 8.3371 19.9492 8.3164 20 8.2957V9.0619C20.3276 9.021 20.6613 9 21 9C21.3387 9 21.6724 9.021 22 9.0619V5Z" fill="#001973"/>
<path fill-rule="evenodd" clip-rule="evenodd" d="M21 23C24.3137 23 27 20.3137 27 17C27 13.6863 24.3137 11 21 11C17.6863 11 15 13.6863 15 17C15 20.3137 17.6863 23 21 23ZM21 25C25.4183 25 29 21.4183 29 17C29 12.5817 25.4183 9 21 9C16.5817 9 13 12.5817 13 17C13 21.4183 16.5817 25 21 25Z" fill="#001973"/>
<path d="M23 17C23 18.1046 22.1046 19 21 19C19.8954 19 19 18.1046 19 17C19 15.8954 19.8954 15 21 15C22.1046 15 23 15.8954 23 17Z" fill="#001973"/>
<path d="M20 13C20 12.4477 20.4477 12 21 12C21.5523 12 22 12.4477 22 13V16C22 16.5523 21.5523 17 21 17C20.4477 17 20 16.5523 20 16V13Z" fill="#001973"/>
<path fill-rule="evenodd" clip-rule="evenodd" d="M35.0396 12.7624C35.5973 11.6469 36 9.966 36 8C36 6.034 35.5973 4.3531 35.0396 3.2376C34.761 2.68039 34.4809 2.33804 34.2653 2.15562C34.1621 2.06834 34.0881 2.02968 34.0486 2.01352C34.0291 2.00555 34.0168 2.00248 34.0109 2.00128C34.0052 2.00013 34.0021 2 34 2C33.9979 2 33.9948 2.00013 33.9891 2.00128C33.9832 2.00248 33.9709 2.00555 33.9514 2.01352C33.9119 2.02968 33.8379 2.06834 33.7347 2.15562C33.5191 2.33804 33.239 2.68039 32.9604 3.2376C32.4027 4.3531 32 6.034 32 8C32 9.966 32.4027 11.6469 32.9604 12.7624C33.239 13.3196 33.5191 13.662 33.7347 13.8444C33.8379 13.9317 33.9119 13.9703 33.9514 13.9865C33.9709 13.9945 33.9832 13.9975 33.9891 13.9987C33.9948 13.9999 33.9979 14 34 14C34.0021 14 34.0052 13.9999 34.0109 13.9987C34.0168 13.9975 34.0291 13.9945 34.0486 13.9865C34.0881 13.9703 34.1621 13.9317 34.2653 13.8444C34.4809 13.662 34.761 13.3196 35.0396 12.7624ZM34 16C36.2091 16 38 12.4183 38 8C38 3.5817 36.2091 0 34 0C31.7909 0 30 3.5817 30 8C30 12.4183 31.7909 16 34 16Z" fill="#001973"/>
<path fill-rule="evenodd" clip-rule="evenodd" d="M35.0396 12.7624C35.5973 11.6469 36 9.966 36 8C36 6.034 35.5973 4.3531 35.0396 3.2376C34.761 2.68039 34.4809 2.33804 34.2653 2.15562C34.1621 2.06834 34.0881 2.02968 34.0486 2.01352C34.0291 2.00555 34.0168 2.00248 34.0109 2.00128C34.0052 2.00013 34.0021 2 34 2C33.9979 2 33.9948 2.00013 33.9891 2.00128C33.9832 2.00248 33.9709 2.00555 33.9514 2.01352C33.9119 2.02968 33.8379 2.06834 33.7347 2.15562C33.5191 2.33804 33.239 2.68039 32.9604 3.2376C32.4027 4.3531 32 6.034 32 8C32 9.966 32.4027 11.6469 32.9604 12.7624C33.239 13.3196 33.5191 13.662 33.7347 13.8444C33.8379 13.9317 33.9119 13.9703 33.9514 13.9865C33.9709 13.9945 33.9832 13.9975 33.9891 13.9987C33.9948 13.9999 33.9979 14 34 14C34.0021 14 34.0052 13.9999 34.0109 13.9987C34.0168 13.9975 34.0291 13.9945 34.0486 13.9865C34.0881 13.9703 34.1621 13.9317 34.2653 13.8444C34.4809 13.662 34.761 13.3196 35.0396 12.7624ZM34 16C36.2091 16 38 12.4183 38 8C38 3.5817 36.2091 0 34 0C31.7909 0 30 3.5817 30 8C30 12.4183 31.7909 16 34 16Z" fill="#001973"/>
</svg>
