<svg width="64" height="64" viewBox="0 0 64 64" fill="none" xmlns="http://www.w3.org/2000/svg">
<path d="M23.92 58.6666H39.92C53.2533 58.6666 58.5866 53.3333 58.5866 39.9999V23.9999C58.5866 10.6666 53.2533 5.33325 39.92 5.33325H23.92C10.5866 5.33325 5.2533 10.6666 5.2533 23.9999V39.9999C5.2533 53.3333 10.5866 58.6666 23.92 58.6666Z" stroke="#001973" stroke-width="1.5" stroke-linecap="round" stroke-linejoin="round"/>
<path d="M5.2533 33.8665L21.2533 33.8132C23.2533 33.8132 25.4933 35.3332 26.24 37.1999L29.28 44.8799C29.9733 46.6132 31.0666 46.6132 31.76 44.8799L37.8666 29.3866C38.4533 27.8932 39.5466 27.8399 40.2933 29.2532L43.0666 34.5065C43.8933 36.0799 46.0266 37.3599 47.7866 37.3599H58.6133" stroke="#001973" stroke-width="1.5" stroke-linecap="round" stroke-linejoin="round"/>
</svg>
