<svg width="128" height="128" viewBox="0 0 128 128" fill="none" xmlns="http://www.w3.org/2000/svg">
<path d="M117.333 91.7328C117.333 105.866 105.867 117.333 91.7332 117.333C84.1599 117.333 77.3865 114.026 72.6932 108.799C68.6399 104.266 66.1333 98.2928 66.1333 91.7328C66.1333 77.5994 77.5999 66.1328 91.7332 66.1328C99.0399 66.1328 105.653 69.2259 110.347 74.1859C110.293 74.1859 110.293 74.1859 110.347 74.2393C114.667 78.8259 117.333 84.9594 117.333 91.7328Z" stroke="#BABABA" stroke-width="1.5" stroke-miterlimit="10" stroke-linecap="round" stroke-linejoin="round"/>
<path d="M98.5601 98.8825L85.0669 85.3359" stroke="#BABABA" stroke-width="1.5" stroke-miterlimit="10" stroke-linecap="round" stroke-linejoin="round"/>
<path d="M98.4002 85.5L84.9067 99.0465" stroke="#BABABA" stroke-width="1.5" stroke-miterlimit="10" stroke-linecap="round" stroke-linejoin="round"/>
<path d="M117.333 46.3447C117.333 56.8514 114.613 66.1312 110.347 74.1846C105.653 69.2246 99.0399 66.1315 91.7332 66.1315C77.5999 66.1315 66.1333 77.5981 66.1333 91.7314C66.1333 98.2914 68.6399 104.265 72.6932 108.798C70.7199 109.705 68.9065 110.451 67.3065 110.985C65.4931 111.625 62.5065 111.625 60.6932 110.985C45.2265 105.705 10.6665 83.6781 10.6665 46.3447C10.6665 29.8647 23.9465 16.5312 40.3198 16.5312C49.9732 16.5312 58.6132 21.2248 63.9998 28.4248C69.3865 21.2248 78.0265 16.5312 87.6799 16.5312C104.053 16.5312 117.333 29.8647 117.333 46.3447Z" stroke="#BABABA" stroke-width="1.5" stroke-linecap="round" stroke-linejoin="round"/>
</svg>
