<svg width="48" height="48" viewBox="0 0 48 48" fill="none" xmlns="http://www.w3.org/2000/svg">
<path d="M4 44H44" stroke="#001973" stroke-width="1.5" stroke-miterlimit="10" stroke-linecap="round" stroke-linejoin="round"/>
<path d="M5.90002 44.0025L6.00002 19.9424C6.00002 18.7224 6.58002 17.5625 7.54002 16.8025L21.54 5.9025C22.98 4.7825 25 4.7825 26.46 5.9025L40.46 16.7825C41.44 17.5425 42 18.7024 42 19.9424V44.0025" stroke="#001973" stroke-width="1.5" stroke-miterlimit="10" stroke-linejoin="round"/>
<path d="M26 34H22C20.34 34 19 35.34 19 37V44H29V37C29 35.34 27.66 34 26 34Z" stroke="#001973" stroke-width="1.5" stroke-miterlimit="10" stroke-linejoin="round"/>
<path d="M19 27.5H15C13.9 27.5 13 26.6 13 25.5V22.5C13 21.4 13.9 20.5 15 20.5H19C20.1 20.5 21 21.4 21 22.5V25.5C21 26.6 20.1 27.5 19 27.5Z" stroke="#001973" stroke-width="1.5" stroke-miterlimit="10" stroke-linejoin="round"/>
<path d="M33 27.5H29C27.9 27.5 27 26.6 27 25.5V22.5C27 21.4 27.9 20.5 29 20.5H33C34.1 20.5 35 21.4 35 22.5V25.5C35 26.6 34.1 27.5 33 27.5Z" stroke="#001973" stroke-width="1.5" stroke-miterlimit="10" stroke-linejoin="round"/>
<path d="M38 14L37.94 8H29.14" stroke="#001973" stroke-width="1.5" stroke-miterlimit="10" stroke-linecap="round" stroke-linejoin="round"/>
</svg>
