<svg width="24" height="25" viewBox="0 0 24 25" fill="none" xmlns="http://www.w3.org/2000/svg">
<path d="M2 22.5H22" stroke="#001973" stroke-width="1.5" stroke-miterlimit="10" stroke-linecap="round" stroke-linejoin="round"/>
<path d="M2.9502 22.5012L3.00019 10.4712C3.00019 9.86121 3.2902 9.28126 3.7702 8.90126L10.7702 3.45125C11.4902 2.89125 12.5002 2.89125 13.2302 3.45125L20.2302 8.89125C20.7202 9.27125 21.0002 9.85121 21.0002 10.4712V22.5012" stroke="#001973" stroke-width="1.5" stroke-miterlimit="10" stroke-linejoin="round"/>
<path d="M13 17.5H11C10.17 17.5 9.5 18.17 9.5 19V22.5H14.5V19C14.5 18.17 13.83 17.5 13 17.5Z" stroke="#001973" stroke-width="1.5" stroke-miterlimit="10" stroke-linejoin="round"/>
<path d="M9.5 14.25H7.5C6.95 14.25 6.5 13.8 6.5 13.25V11.75C6.5 11.2 6.95 10.75 7.5 10.75H9.5C10.05 10.75 10.5 11.2 10.5 11.75V13.25C10.5 13.8 10.05 14.25 9.5 14.25Z" stroke="#001973" stroke-width="1.5" stroke-miterlimit="10" stroke-linejoin="round"/>
<path d="M16.5 14.25H14.5C13.95 14.25 13.5 13.8 13.5 13.25V11.75C13.5 11.2 13.95 10.75 14.5 10.75H16.5C17.05 10.75 17.5 11.2 17.5 11.75V13.25C17.5 13.8 17.05 14.25 16.5 14.25Z" stroke="#001973" stroke-width="1.5" stroke-miterlimit="10" stroke-linejoin="round"/>
<path d="M18.9998 7.5L18.9698 4.5H14.5698" stroke="#001973" stroke-width="1.5" stroke-miterlimit="10" stroke-linecap="round" stroke-linejoin="round"/>
</svg>
