<svg width="48" height="48" viewBox="0 0 48 48" fill="none" xmlns="http://www.w3.org/2000/svg">
<path d="M40.5 13.25H7.5C6.11929 13.25 5 14.3693 5 15.75V39.75C5 41.1307 6.11929 42.25 7.5 42.25H40.5C41.8807 42.25 43 41.1307 43 39.75V15.75C43 14.3693 41.8807 13.25 40.5 13.25Z" stroke="#001973" stroke-width="2" stroke-linecap="round" stroke-linejoin="round"/>
<path d="M31.5 13.5V10.5C31.5 9.70435 31.1839 8.94129 30.6213 8.37868C30.0587 7.81607 29.2956 7.5 28.5 7.5H19.5C18.7044 7.5 17.9413 7.81607 17.3787 8.37868C16.8161 8.94129 16.5 9.70435 16.5 10.5V13.5" stroke="#001973" stroke-width="2" stroke-linecap="round" stroke-linejoin="round"/>
<path d="M24 21.75V32.25" stroke="#001973" stroke-width="2" stroke-linecap="round" stroke-linejoin="round"/>
<path d="M29.25 27H18.75" stroke="#001973" stroke-width="2" stroke-linecap="round" stroke-linejoin="round"/>
</svg>
