<svg width="32" height="32" viewBox="0 0 32 32" fill="none" xmlns="http://www.w3.org/2000/svg">
<path d="M12 29.3346H20C26.6666 29.3346 29.3333 26.668 29.3333 20.0013V12.0013C29.3333 5.33464 26.6666 2.66797 20 2.66797H12C5.33329 2.66797 2.66663 5.33464 2.66663 12.0013V20.0013C2.66663 26.668 5.33329 29.3346 12 29.3346Z" stroke="#001973" stroke-linecap="round" stroke-linejoin="round"/>
<path d="M16 20.6654C18.5774 20.6654 20.6667 18.576 20.6667 15.9987C20.6667 13.4214 18.5774 11.332 16 11.332C13.4227 11.332 11.3334 13.4214 11.3334 15.9987C11.3334 18.576 13.4227 20.6654 16 20.6654Z" stroke="#001973" stroke-linecap="round" stroke-linejoin="round"/>
<path d="M23.5148 9.33464H23.5302" stroke="#001973" stroke-linecap="round" stroke-linejoin="round"/>
</svg>
