<svg width="30" height="30" viewBox="0 0 32 32" fill="none" xmlns="http://www.w3.org/2000/svg">
<path d="M31.4989 5.81213C31.7757 5.81213 32 5.58781 32 5.31106V2.63881C32 1.18381 30.8162 0 29.3612 0H2.63881C1.18381 0 0 1.18381 0 2.63881V29.3611C0 30.8162 1.18381 32 2.63881 32H29.3611C30.8162 32 32 30.8162 32 29.3612V7.44887C32 7.17219 31.7757 6.94781 31.4989 6.94781C31.2222 6.94781 30.9979 7.17212 30.9979 7.44887V29.3612C30.9979 30.2637 30.2637 30.9979 29.3611 30.9979H2.63881C1.73631 30.9979 1.00206 30.2637 1.00206 29.3612V2.63881C1.00206 1.73631 1.73631 1.00206 2.63881 1.00206H29.3611C30.2637 1.00206 30.9979 1.73631 30.9979 2.63881V5.31106C30.9979 5.58781 31.2222 5.81213 31.4989 5.81213Z" fill="#001973"/>
<path d="M9.58663 14.9311C9.86331 14.9311 10.0877 14.7068 10.0877 14.4301V12.2589C10.0877 11.9822 9.86337 11.7578 9.58663 11.7578H5.31106C5.03437 11.7578 4.81 11.9821 4.81 12.2589V26.6889C4.81 26.9656 5.03431 27.19 5.31106 27.19H9.58663C9.86331 27.19 10.0877 26.9657 10.0877 26.6889V16.6346C10.0877 16.3579 9.86337 16.1336 9.58663 16.1336C9.30988 16.1336 9.08556 16.3579 9.08556 16.6346V26.1879H5.81213V12.7599H9.08562V14.4301C9.08562 14.7067 9.30994 14.9311 9.58663 14.9311Z" fill="#001973"/>
<path d="M25.5031 13.1304C24.4832 12.2581 23.1622 11.7579 21.8789 11.7579C19.7607 11.7579 18.419 12.4621 17.5699 13.3298V12.2589C17.5699 11.9823 17.3457 11.7579 17.0689 11.7579H12.7933C12.5166 11.7579 12.2922 11.9822 12.2922 12.2589V26.689C12.2922 26.9657 12.5166 27.1901 12.7933 27.1901H17.0689C17.3456 27.1901 17.5699 26.9657 17.5699 26.689V19.7411C17.5699 18.4001 18.6969 17.5699 19.7411 17.5699C20.9992 17.5699 21.9123 18.4831 21.9123 19.7411V26.6889C21.9123 26.9656 22.1366 27.19 22.4134 27.19H26.6889C26.9657 27.19 27.19 26.9657 27.19 26.6889V16.5344C27.19 15.2697 26.5909 14.0608 25.5031 13.1304ZM22.9144 26.1879V19.7411C22.9144 17.932 21.5501 16.5679 19.7411 16.5679C18.215 16.5679 16.5679 17.7811 16.5679 19.7411V26.1879H13.2944V12.7599H16.5679V14.9311C16.5679 15.1596 16.7287 15.364 16.9507 15.4179C17.1794 15.4734 17.4226 15.3571 17.5226 15.1439C18.2645 13.562 19.7302 12.7599 21.879 12.7599C23.9131 12.7599 26.188 14.3742 26.188 16.5344V26.1879H22.9144Z" fill="#001973"/>
<path d="M7.44887 4.81C5.99381 4.81 4.81006 5.99381 4.81006 7.44881C4.81006 8.90381 5.99388 10.0876 7.44887 10.0876C8.90388 10.0876 10.0877 8.90381 10.0877 7.44881C10.0877 5.99381 8.90388 4.81 7.44887 4.81ZM7.44887 9.08562C6.54637 9.08562 5.81213 8.35137 5.81213 7.44887C5.81213 6.54637 6.54637 5.81213 7.44887 5.81213C8.35137 5.81213 9.08562 6.54637 9.08562 7.44887C9.08562 8.35137 8.35131 9.08562 7.44887 9.08562Z" fill="#001973"/>
</svg>
