<svg width="256" height="256" viewBox="0 0 256 256" fill="none" xmlns="http://www.w3.org/2000/svg">
<path d="M211.84 86.293C211.84 90.773 211.52 95.1463 210.987 99.3063C206.08 97.173 200.747 95.9997 195.094 95.9997C182.08 95.9997 170.56 102.293 163.414 111.893C156.16 102.293 144.64 95.9997 131.627 95.9997C109.76 95.9997 92.0536 113.813 92.0536 135.893C92.0536 164.48 107.2 186.346 124.054 201.173C123.52 201.493 122.987 201.6 122.454 201.813C119.254 202.986 113.92 202.986 110.72 201.813C83.0936 192.32 21.3335 153.066 21.3335 86.293C21.3335 56.853 45.0134 33.0664 74.2401 33.0664C91.6267 33.0664 106.987 41.3863 116.587 54.293C126.293 41.3863 141.653 33.0664 158.933 33.0664C188.16 33.0664 211.84 56.853 211.84 86.293Z" stroke="#001973" stroke-width="1.5" stroke-linecap="round" stroke-linejoin="round"/>
<path d="M234.667 135.893C234.667 185.813 188.48 215.253 167.787 222.293C165.334 223.147 161.387 223.147 158.934 222.293C150.08 219.307 136.534 212.16 124.054 201.173C107.2 186.347 92.0537 164.48 92.0537 135.893C92.0537 113.813 109.76 96 131.627 96C144.64 96 156.16 102.293 163.414 111.893C170.56 102.293 182.08 96 195.094 96C200.747 96 206.08 97.1733 210.987 99.3066C224.96 105.493 234.667 119.467 234.667 135.893Z" stroke="#001973" stroke-width="1.5" stroke-linecap="round" stroke-linejoin="round"/>
</svg>
