<svg width="24" height="25" viewBox="0 0 24 25" fill="none" xmlns="http://www.w3.org/2000/svg">
<path d="M2.29004 8.28193V18.0119C2.29004 19.9119 3.64004 20.6919 5.28004 19.7519L7.63004 18.4119C8.14004 18.1219 8.99004 18.0919 9.52004 18.3619L14.77 20.9919C15.3 21.2519 16.15 21.2319 16.66 20.9419L20.99 18.4619C21.54 18.1419 22 17.3619 22 16.7219V6.99193C22 5.09193 20.65 4.31193 19.01 5.25193L16.66 6.59193C16.15 6.88193 15.3 6.91193 14.77 6.64193L9.52004 4.02193C8.99004 3.76193 8.14004 3.78193 7.63004 4.07193L3.30004 6.55193C2.74004 6.87193 2.29004 7.65193 2.29004 8.28193Z" stroke="#001973" stroke-width="1.5" stroke-linecap="round" stroke-linejoin="round"/>
<path d="M8.55957 4.5V17.5" stroke="#292D32" stroke-width="1.5" stroke-linecap="round" stroke-linejoin="round"/>
<path d="M15.7305 7.12109V20.5011" stroke="#292D32" stroke-width="1.5" stroke-linecap="round" stroke-linejoin="round"/>
</svg>
