<svg width="32" height="32" viewBox="0 0 32 32" fill="none" xmlns="http://www.w3.org/2000/svg">
<path d="M29.2399 9.0127L24.7465 27.0527C24.4265 28.3994 23.2265 29.3327 21.8399 29.3327H4.31985C2.30651 29.3327 0.866535 27.3593 1.46653 25.4259L7.07986 7.39941C7.46652 6.14608 8.62654 5.2793 9.93321 5.2793H26.3332C27.5999 5.2793 28.6532 6.05264 29.0932 7.1193C29.3465 7.69264 29.3999 8.34603 29.2399 9.0127Z" stroke="#001973" stroke-width="1.5" stroke-miterlimit="10"/>
<path d="M21.333 29.3333H27.7063C29.4263 29.3333 30.773 27.88 30.653 26.16L29.333 8" stroke="#001973" stroke-width="1.5" stroke-miterlimit="10" stroke-linecap="round" stroke-linejoin="round"/>
<path d="M12.9062 8.50602L14.2929 2.74609" stroke="#001973" stroke-width="1.5" stroke-miterlimit="10" stroke-linecap="round" stroke-linejoin="round"/>
<path d="M21.8398 8.521L23.0932 2.73438" stroke="#001973" stroke-width="1.5" stroke-miterlimit="10" stroke-linecap="round" stroke-linejoin="round"/>
<path d="M10.2666 16H20.9333" stroke="#001973" stroke-width="1.5" stroke-miterlimit="10" stroke-linecap="round" stroke-linejoin="round"/>
<path d="M8.93359 21.334H19.6003" stroke="#001973" stroke-width="1.5" stroke-miterlimit="10" stroke-linecap="round" stroke-linejoin="round"/>
</svg>
