<svg width="48" height="48" viewBox="0 0 48 48" fill="none" xmlns="http://www.w3.org/2000/svg">
<path d="M34 18C34 25.74 27.28 32 19 32L17.14 34.24L16.04 35.5601C15.1 36.6801 13.3 36.44 12.68 35.1L10 29.2C6.36 26.64 4 22.58 4 18C4 10.26 10.72 4 19 4C25.04 4 30.26 7.34001 32.6 12.14C33.5 13.92 34 15.9 34 18Z" stroke="#001973" stroke-width="1.5" stroke-linecap="round" stroke-linejoin="round"/>
<path d="M44 25.7206C44 30.3006 41.64 34.3607 38 36.9207L35.32 42.8206C34.7 44.1606 32.9 44.4206 31.96 43.2806L29 39.7206C24.16 39.7206 19.84 37.5806 17.14 34.2406L19 32.0006C27.28 32.0006 34 25.7406 34 18.0006C34 15.9006 33.5 13.9206 32.6 12.1406C39.14 13.6406 44 19.1606 44 25.7206Z" stroke="#001973" stroke-width="1.5" stroke-linecap="round" stroke-linejoin="round"/>
<path d="M14 18H24" stroke="#001973" stroke-width="1.5" stroke-linecap="round" stroke-linejoin="round"/>
</svg>
