<svg width="48" height="48" viewBox="0 0 48 48" fill="none" xmlns="http://www.w3.org/2000/svg">
<path d="M34 36.8595H26L17.1 42.7794C15.78 43.6594 14 42.7195 14 41.1195V36.8595C8 36.8595 4 32.8595 4 26.8595V14.8594C4 8.85938 8 4.85938 14 4.85938H34C40 4.85938 44 8.85938 44 14.8594V26.8595C44 32.8595 40 36.8595 34 36.8595Z" stroke="#001973" stroke-width="1.5" stroke-miterlimit="10" stroke-linecap="round" stroke-linejoin="round"/>
<path d="M24 22.7188V22.2988C24 20.9388 24.8401 20.2188 25.6801 19.6388C26.5001 19.0788 27.3199 18.3588 27.3199 17.0388C27.3199 15.1988 25.84 13.7188 24 13.7188C22.16 13.7188 20.6801 15.1988 20.6801 17.0388" stroke="#001973" stroke-width="1.5" stroke-linecap="round" stroke-linejoin="round"/>
<path fill-rule="evenodd" clip-rule="evenodd" d="M23.991 27.5H24.009H23.991Z" fill="#001973"/>
<path d="M23.991 27.5H24.009" stroke="#001973" stroke-width="1.5" stroke-linecap="round" stroke-linejoin="round"/>
</svg>
