<svg width="36" height="46" viewBox="0 0 36 46" fill="none" xmlns="http://www.w3.org/2000/svg">
<path d="M35.0492 34.9998H27.3735V33.8868H31.4505C31.9802 33.8868 32.405 33.4601 32.405 32.9322C32.405 32.4062 31.9802 31.9776 31.4505 31.9776H21.8178C21.2899 31.9776 20.8632 32.4062 20.8632 32.9322C20.8632 33.4601 21.2899 33.8868 21.8178 33.8868H25.4643V34.9998H10.8306V23.9143L13.4939 21.252C14.6155 22.4729 16.2192 23.2432 18.0052 23.2432C18.41 23.2432 18.8052 23.2012 19.1889 23.1258L20.1091 27.7947C20.1998 28.2519 20.5988 28.5688 21.0437 28.5688C21.1028 28.5688 21.1668 28.5612 21.2279 28.5488L30.2591 26.7704C30.5092 26.7198 30.725 26.5747 30.8691 26.3637C31.0094 26.1528 31.0629 25.8979 31.0104 25.6478L27.237 6.5114C27.3544 6.30903 27.405 6.06466 27.3429 5.81933C27.2904 5.60074 27.1606 5.42987 26.9983 5.30004L26.2528 1.51514C26.2022 1.26695 26.059 1.04836 25.8461 0.90708C25.6352 0.765802 25.3803 0.714254 25.1302 0.763892L23.4616 1.09322C23.4788 0.997764 23.4883 0.901351 23.475 0.800166C23.3891 0.279921 22.8974 -0.0723168 22.3782 0.0126406L17.8477 0.758166C17.3265 0.844078 16.9752 1.33473 17.0602 1.85497C17.0898 2.03348 17.1776 2.18239 17.2864 2.31126L16.1009 2.54513C15.5835 2.64441 15.2456 3.14843 15.3486 3.66581L16.7662 10.8614C15.6952 11.0838 14.7053 11.5898 13.8891 12.3353L12.4916 10.9378C12.1184 10.5645 11.5151 10.5645 11.1418 10.9378L2.14971 19.9289C2.05139 20.0263 1.98552 20.1475 1.94447 20.2793C1.89674 20.3929 1.87002 20.5179 1.87002 20.6487V35.0036H0.954577C0.427651 35.0036 0 35.4303 0 35.9582V44.5885C0 45.1174 0.427651 45.5431 0.954577 45.5431H35.0454C35.5733 45.5431 36 45.1174 36 44.5885V35.9582C36.0038 35.4275 35.5771 34.9998 35.0492 34.9998ZM34.0946 38.7398H1.91297V36.909H2.30244C2.45517 37.0111 2.62986 37.0884 2.82841 37.0884H9.87701C10.0756 37.0884 10.2512 37.014 10.403 36.909H25.8948C26.0456 37.0111 26.2213 37.0884 26.4208 37.0884C26.6184 37.0884 26.794 37.014 26.9468 36.909H34.0965V38.7398H34.0946ZM18.0052 12.8861C20.2962 12.8861 22.1596 14.7236 22.2168 17.0022C22.2035 17.3879 22.1481 17.764 22.0364 18.1191C21.8522 18.7195 21.5314 19.2665 21.1028 19.7228C20.6771 20.179 20.1435 20.5456 19.5287 20.7842C19.5287 20.7842 19.5287 20.7842 19.5287 20.7852C17.6014 21.5345 15.551 20.7947 14.4828 19.1834C14.4084 19.0708 14.3091 18.981 14.1974 18.9095C13.9368 18.3615 13.7793 17.7563 13.7793 17.1101C13.7793 14.7809 15.6761 12.8861 18.0052 12.8861ZM21.7978 26.4888L21.0017 22.4528C22.8698 21.4009 24.1374 19.4001 24.1374 17.1072C24.1374 17.0585 24.1317 17.0118 24.1279 16.9631C24.1289 16.9268 24.1374 16.8915 24.1374 16.8542C24.1374 16.65 24.1241 16.4476 24.1059 16.2481C24.1002 16.1832 24.0859 16.1202 24.0802 16.0562C24.0611 15.9226 24.0468 15.7899 24.021 15.6591C24.0048 15.5837 23.9857 15.5102 23.9666 15.4348C23.9389 15.3183 23.9103 15.2028 23.8768 15.0892C23.8549 15.011 23.8243 14.9355 23.7986 14.8582C23.7613 14.7513 23.726 14.6454 23.6812 14.5413C23.6516 14.464 23.6162 14.3886 23.5809 14.3132C23.5361 14.2139 23.4893 14.1156 23.4416 14.0201C23.4024 13.9447 23.3595 13.8712 23.3165 13.7977C23.2611 13.7051 23.2105 13.6144 23.1504 13.5256C23.1027 13.454 23.054 13.3844 23.0072 13.3147C22.948 13.2288 22.8822 13.1438 22.8182 13.0608C22.7648 12.9939 22.7132 12.9281 22.6559 12.8632C22.5891 12.783 22.5166 12.7057 22.4402 12.6293C22.381 12.5682 22.3247 12.5071 22.2607 12.4479C22.1853 12.3744 22.1051 12.3038 22.0269 12.2341C21.9629 12.1787 21.899 12.1234 21.8331 12.0699C21.7491 12.0031 21.6622 11.9401 21.5744 11.8771C21.5085 11.8284 21.4398 11.7797 21.373 11.7339C21.2794 11.6728 21.184 11.6165 21.0857 11.5602C21.0188 11.5201 20.9501 11.4781 20.8804 11.4408C20.7764 11.3845 20.6628 11.3339 20.5549 11.2833C20.491 11.2537 20.4251 11.2203 20.3611 11.1926C20.2237 11.1354 20.0862 11.0876 19.943 11.0399C19.9001 11.0256 19.8571 11.0075 19.8142 10.9931C19.629 10.9359 19.4361 10.8862 19.2424 10.8461C19.1975 10.8366 19.1517 10.8328 19.1049 10.8242C18.9655 10.7994 18.8309 10.7736 18.6878 10.7574L18.3222 8.90453L25.4299 7.23784L28.9476 25.0732L21.7978 26.4888ZM25.071 5.36877L17.9613 7.03546L17.4086 4.22901L24.568 2.81719L25.071 5.36877ZM3.78299 20.9952L11.8205 12.9586L12.7789 13.917C12.2071 14.8487 11.8721 15.9398 11.8721 17.111C11.8721 18.0093 12.0706 18.8598 12.419 19.6302L9.20212 22.8461C9.02266 23.0256 8.92243 23.2671 8.92243 23.521V34.9998H3.78299V20.9952ZM1.91297 43.6301V40.6471H34.0946V43.6301H1.91297Z" fill="#001973"/>
</svg>
