<svg width="48" height="48" viewBox="0 0 48 48" fill="none" xmlns="http://www.w3.org/2000/svg">
<path fill-rule="evenodd" clip-rule="evenodd" d="M16.5882 4.61765H18.7059V2.5H12.3529V4.61765H14.4706V6.73529H12.1722C11.7362 5.50156 10.5595 4.61765 9.17647 4.61765C7.42216 4.61765 6 6.03981 6 7.79412C6 9.54848 7.42216 10.9706 9.17647 10.9706C10.5595 10.9706 11.7362 10.0867 12.1722 8.85294H14.4706V11.0585C11.466 11.5625 9.17647 14.1756 9.17647 17.3235V43.7941C9.17647 44.3789 9.65051 44.8529 10.2353 44.8529H20.8235C21.4083 44.8529 21.8824 44.3789 21.8824 43.7941V17.3235C21.8824 14.1756 19.5929 11.5625 16.5882 11.0585V8.85294H21.8824V6.73529H16.5882V4.61765ZM15.5294 13.0882C13.1904 13.0882 11.2941 14.9845 11.2941 17.3235V19.4412H19.7647V17.3235C19.7647 14.9845 17.8685 13.0882 15.5294 13.0882ZM11.2941 42.7353V21.5588H19.7647V42.7353H11.2941ZM8.11765 7.79412C8.11765 7.20935 8.5917 6.73529 9.17647 6.73529C9.76126 6.73529 10.2353 7.20935 10.2353 7.79412C10.2353 8.37888 9.76126 8.85294 9.17647 8.85294C8.5917 8.85294 8.11765 8.37888 8.11765 7.79412ZM26.1176 20.5C26.1176 18.161 28.0139 16.2647 30.3529 16.2647C32.692 16.2647 34.5882 18.161 34.5882 20.5V26.8529C34.5882 29.192 32.692 31.0882 30.3529 31.0882C28.0139 31.0882 26.1176 29.192 26.1176 26.8529V20.5ZM30.3529 18.3824C29.1834 18.3824 28.2353 19.3304 28.2353 20.5V26.8529C28.2353 28.0225 29.1834 28.9706 30.3529 28.9706C31.5225 28.9706 32.4706 28.0225 32.4706 26.8529V20.5C32.4706 19.3304 31.5225 18.3824 30.3529 18.3824ZM38.8235 25.7941H35.6471V23.6765H38.8235C40.5779 23.6765 42 25.0986 42 26.8529C42 28.6073 40.5779 30.0294 38.8235 30.0294C38.2387 30.0294 37.7647 30.5034 37.7647 31.0882V32.1471H42V34.2647H36.7059C36.1211 34.2647 35.6471 33.7907 35.6471 33.2059V31.0882C35.6471 29.3339 37.0692 27.9118 38.8235 27.9118C39.4083 27.9118 39.8824 27.4377 39.8824 26.8529C39.8824 26.2682 39.4083 25.7941 38.8235 25.7941Z" fill="#001973"/>
</svg>
