<svg width="48" height="48" viewBox="0 0 48 48" fill="none" xmlns="http://www.w3.org/2000/svg">
<path d="M36 14.32C35.88 14.3 35.74 14.3 35.62 14.32C32.86 14.22 30.66 11.96 30.66 9.16C30.66 6.3 32.96 4 35.82 4C38.68 4 40.98 6.32 40.98 9.16C40.96 11.96 38.76 14.22 36 14.32Z" stroke="#001973" stroke-width="1.5" stroke-linecap="round" stroke-linejoin="round"/>
<path d="M33.94 28.8803C36.68 29.3403 39.7 28.8603 41.82 27.4403C44.64 25.5603 44.64 22.4803 41.82 20.6003C39.68 19.1803 36.62 18.7003 33.88 19.1803" stroke="#001973" stroke-width="1.5" stroke-linecap="round" stroke-linejoin="round"/>
<path d="M11.94 14.32C12.06 14.3 12.2 14.3 12.32 14.32C15.08 14.22 17.28 11.96 17.28 9.16C17.28 6.3 14.98 4 12.12 4C9.25996 4 6.95996 6.32 6.95996 9.16C6.97996 11.96 9.17996 14.22 11.94 14.32Z" stroke="#001973" stroke-width="1.5" stroke-linecap="round" stroke-linejoin="round"/>
<path d="M14 28.8803C11.26 29.3403 8.24 28.8603 6.12 27.4403C3.3 25.5603 3.3 22.4803 6.12 20.6003C8.26 19.1803 11.32 18.7003 14.06 19.1803" stroke="#001973" stroke-width="1.5" stroke-linecap="round" stroke-linejoin="round"/>
<path d="M23.9999 29.2614C23.8799 29.2414 23.7399 29.2414 23.6199 29.2614C20.8599 29.1614 18.6599 26.9014 18.6599 24.1014C18.6599 21.2414 20.9599 18.9414 23.8199 18.9414C26.6799 18.9414 28.9799 21.2614 28.9799 24.1014C28.9599 26.9014 26.7599 29.1814 23.9999 29.2614Z" stroke="#001973" stroke-width="1.5" stroke-linecap="round" stroke-linejoin="round"/>
<path d="M18.1799 35.5627C15.3599 37.4427 15.3599 40.5227 18.1799 42.4027C21.3799 44.5427 26.6199 44.5427 29.8199 42.4027C32.6399 40.5227 32.6399 37.4427 29.8199 35.5627C26.6399 33.4427 21.3799 33.4427 18.1799 35.5627Z" stroke="#001973" stroke-width="1.5" stroke-linecap="round" stroke-linejoin="round"/>
</svg>
