<svg width="24" height="25" viewBox="0 0 24 25" fill="none" xmlns="http://www.w3.org/2000/svg">
<path d="M17 21.5H7C3 21.5 2 20.5 2 16.5V8.5C2 4.5 3 3.5 7 3.5H17C21 3.5 22 4.5 22 8.5V16.5C22 20.5 21 21.5 17 21.5Z" stroke="#001973" stroke-width="1.5" stroke-linecap="round" stroke-linejoin="round"/>
<path d="M14 8.5H19" stroke="#001973" stroke-width="1.5" stroke-linecap="round" stroke-linejoin="round"/>
<path d="M15 12.5H19" stroke="#001973" stroke-width="1.5" stroke-linecap="round" stroke-linejoin="round"/>
<path d="M17 16.5H19" stroke="#001973" stroke-width="1.5" stroke-linecap="round" stroke-linejoin="round"/>
<path d="M8.50043 11.7919C9.50007 11.7919 10.3104 10.9815 10.3104 9.98187C10.3104 8.98224 9.50007 8.17188 8.50043 8.17188C7.50079 8.17188 6.69043 8.98224 6.69043 9.98187C6.69043 10.9815 7.50079 11.7919 8.50043 11.7919Z" stroke="#001973" stroke-width="1.5" stroke-linecap="round" stroke-linejoin="round"/>
<path d="M12 16.8317C11.86 15.3817 10.71 14.2417 9.26 14.1117C8.76 14.0617 8.25 14.0617 7.74 14.1117C6.29 14.2517 5.14 15.3817 5 16.8317" stroke="#001973" stroke-width="1.5" stroke-linecap="round" stroke-linejoin="round"/>
</svg>
