<svg width="256" height="256" viewBox="0 0 256 256" fill="none" xmlns="http://www.w3.org/2000/svg">
<path d="M144.998 191.5L120.998 167.5M64.998 111.5L76.248 122.75M56.998 197.5L22.998 231.5M132.248 178.75L113.498 197.5C98.0341 212.964 72.962 212.964 57.498 197.5V197.5C42.0341 182.036 42.0341 156.964 57.498 141.5L76.248 122.75M76.248 122.75L88.998 135.5M88.998 135.5L120.998 167.5M88.998 135.5L112.998 111.5M120.998 167.5L144.998 143.5" stroke="#001973" stroke-width="1.5"/>
<path d="M111 63.5L179.75 132.25M191 143.5L179.75 132.25M199 57.5L233 23.5M123.75 76.25L142.5 57.5C157.964 42.036 183.036 42.036 198.5 57.5V57.5C213.964 72.964 213.964 98.036 198.5 113.5L179.75 132.25" stroke="#001973" stroke-width="1.5"/>
</svg>
