<svg width="24" height="25" viewBox="0 0 24 25" fill="none" xmlns="http://www.w3.org/2000/svg">
<path d="M7.25 7.5H16.75V5.5C16.75 3.5 16 2.5 13.75 2.5H10.25C8 2.5 7.25 3.5 7.25 5.5V7.5Z" stroke="#001973" stroke-width="1.5" stroke-miterlimit="10" stroke-linecap="round" stroke-linejoin="round"/>
<path d="M16 15.5V19.5C16 21.5 15 22.5 13 22.5H11C9 22.5 8 21.5 8 19.5V15.5H16Z" stroke="#001973" stroke-width="1.5" stroke-miterlimit="10" stroke-linecap="round" stroke-linejoin="round"/>
<path d="M21 10.5V15.5C21 17.5 20 18.5 18 18.5H16V15.5H8V18.5H6C4 18.5 3 17.5 3 15.5V10.5C3 8.5 4 7.5 6 7.5H18C20 7.5 21 8.5 21 10.5Z" stroke="#001973" stroke-width="1.5" stroke-miterlimit="10" stroke-linecap="round" stroke-linejoin="round"/>
<path d="M17 15.5H15.79H7" stroke="#001973" stroke-width="1.5" stroke-miterlimit="10" stroke-linecap="round" stroke-linejoin="round"/>
<path d="M7 11.5H10" stroke="#001973" stroke-width="1.5" stroke-miterlimit="10" stroke-linecap="round" stroke-linejoin="round"/>
</svg>
