<svg width="80" height="80" viewBox="0 0 80 80" fill="none" xmlns="http://www.w3.org/2000/svg">
<path d="M40.5333 36.2307C40.2 36.1974 39.8 36.1974 39.4333 36.2307C31.5 35.9641 25.2 29.4641 25.2 21.4641C25.2 13.2974 31.8 6.66406 40 6.66406C48.1666 6.66406 54.8 13.2974 54.8 21.4641C54.7666 29.4641 48.4666 35.9641 40.5333 36.2307Z" stroke="#001973" stroke-width="1.5" stroke-linecap="round" stroke-linejoin="round"/>
<path d="M23.8667 48.5359C15.8 53.9359 15.8 62.7359 23.8667 68.1026C33.0333 74.2359 48.0667 74.2359 57.2333 68.1026C65.3 62.7026 65.3 53.9026 57.2333 48.5359C48.1 42.4359 33.0667 42.4359 23.8667 48.5359Z" stroke="#001973" stroke-width="1.5" stroke-linecap="round" stroke-linejoin="round"/>
</svg>
