<svg width="192" height="192" viewBox="0 0 192 192" fill="none" xmlns="http://www.w3.org/2000/svg">
<path d="M73.28 86.96C72.48 86.88 71.52 86.88 70.64 86.96C51.6 86.32 36.48 70.72 36.48 51.52C36.48 31.92 52.32 16 72 16C91.6 16 107.52 31.92 107.52 51.52C107.44 70.72 92.32 86.32 73.28 86.96Z" stroke="#001973" stroke-width="1.5" stroke-linecap="round" stroke-linejoin="round"/>
<path d="M131.28 32C146.8 32 159.28 44.56 159.28 60C159.28 75.12 147.28 87.44 132.32 88C131.68 87.92 130.96 87.92 130.24 88" stroke="#001973" stroke-width="1.5" stroke-linecap="round" stroke-linejoin="round"/>
<path d="M33.2798 116.48C13.9198 129.44 13.9198 150.56 33.2798 163.44C55.2798 178.16 91.3598 178.16 113.36 163.44C132.72 150.48 132.72 129.36 113.36 116.48C91.4398 101.84 55.3598 101.84 33.2798 116.48Z" stroke="#001973" stroke-width="1.5" stroke-linecap="round" stroke-linejoin="round"/>
<path d="M146.72 160C152.48 158.8 157.92 156.48 162.4 153.04C174.88 143.68 174.88 128.24 162.4 118.88C158 115.52 152.64 113.28 146.96 112" stroke="#001973" stroke-width="1.5" stroke-linecap="round" stroke-linejoin="round"/>
</svg>
