<svg width="48" height="48" viewBox="0 0 48 48" fill="none" xmlns="http://www.w3.org/2000/svg">
<path d="M24.32 21.74C24.12 21.72 23.88 21.72 23.66 21.74C18.9 21.58 15.12 17.68 15.12 12.88C15.12 7.98 19.08 4 24 4C28.9 4 32.88 7.98 32.88 12.88C32.86 17.68 29.08 21.58 24.32 21.74Z" stroke="#001973" stroke-width="1.5" stroke-linecap="round" stroke-linejoin="round"/>
<path d="M14.3199 29.12C9.47994 32.36 9.47994 37.64 14.3199 40.86C19.8199 44.54 28.8399 44.54 34.3399 40.86C39.1799 37.62 39.1799 32.34 34.3399 29.12C28.8599 25.46 19.8399 25.46 14.3199 29.12Z" stroke="#001973" stroke-width="1.5" stroke-linecap="round" stroke-linejoin="round"/>
</svg>
