<svg width="160" height="160" viewBox="0 0 160 160" fill="none" xmlns="http://www.w3.org/2000/svg">
<path d="M13.3334 82.332H52C62.2 82.332 69.2001 90.0655 69.2001 99.5321V120.999C69.2001 130.466 62.2 138.199 52 138.199H30.5335C21.0668 138.199 13.3334 130.466 13.3334 120.999V82.332" stroke="#122122" stroke-width="1.5" stroke-linecap="round" stroke-linejoin="round"/>
<path d="M13.3334 82.3335C13.3334 42.0002 20.8669 35.3339 43.5336 21.8672" stroke="#122122" stroke-width="1.5" stroke-linecap="round" stroke-linejoin="round"/>
<path d="M90.8667 82.332H129.533C139.733 82.332 146.733 90.0655 146.733 99.5321V120.999C146.733 130.466 139.733 138.199 129.533 138.199H108.067C98.6001 138.199 90.8667 130.466 90.8667 120.999V82.332" stroke="#122122" stroke-width="1.5" stroke-linecap="round" stroke-linejoin="round"/>
<path d="M90.8667 82.3335C90.8667 42.0002 98.3998 35.3339 121.066 21.8672" stroke="#122122" stroke-width="1.5" stroke-linecap="round" stroke-linejoin="round"/>
</svg>
