<svg width="22" height="21" viewBox="0 0 22 21" fill="none" xmlns="http://www.w3.org/2000/svg">
<path d="M1 11.3794V9.61945C1 8.57945 1.85 7.71945 2.9 7.71945C4.71 7.71945 5.45 6.43945 4.54 4.86945C4.02 3.96945 4.33 2.79945 5.24 2.27945L6.97 1.28945C7.76 0.819448 8.78 1.09945 9.25 1.88945L9.36 2.07945C10.26 3.64945 11.74 3.64945 12.65 2.07945L12.76 1.88945C13.23 1.09945 14.25 0.819448 15.04 1.28945L16.77 2.27945C17.68 2.79945 17.99 3.96945 17.47 4.86945C16.56 6.43945 17.3 7.71945 19.11 7.71945C20.15 7.71945 21.01 8.56945 21.01 9.61945V11.3794C21.01 12.4194 20.16 13.2794 19.11 13.2794C17.3 13.2794 16.56 14.5594 17.47 16.1294C17.99 17.0394 17.68 18.1994 16.77 18.7194L15.04 19.7094C14.25 20.1794 13.23 19.8994 12.76 19.1094L12.65 18.9194C11.75 17.3494 10.27 17.3494 9.36 18.9194L9.25 19.1094C8.78 19.8994 7.76 20.1794 6.97 19.7094L5.24 18.7194C4.33 18.1994 4.02 17.0294 4.54 16.1294C5.45 14.5594 4.71 13.2794 2.9 13.2794C1.85 13.2794 1 12.4194 1 11.3794Z" stroke="#001973" stroke-width="1.5" stroke-miterlimit="10" stroke-linecap="round" stroke-linejoin="round"/>
</svg>
