<svg width="24" height="25" viewBox="0 0 24 25" fill="none" xmlns="http://www.w3.org/2000/svg">
<path d="M12 15.5C13.6569 15.5 15 14.1569 15 12.5C15 10.8431 13.6569 9.5 12 9.5C10.3431 9.5 9 10.8431 9 12.5C9 14.1569 10.3431 15.5 12 15.5Z" stroke="#001973" stroke-width="1.5" stroke-miterlimit="10" stroke-linecap="round" stroke-linejoin="round"/>
<path d="M2 13.3794V11.6194C2 10.5794 2.85 9.71945 3.9 9.71945C5.71 9.71945 6.45 8.43945 5.54 6.86945C5.02 5.96945 5.33 4.79945 6.24 4.27945L7.97 3.28945C8.76 2.81945 9.78 3.09945 10.25 3.88945L10.36 4.07945C11.26 5.64945 12.74 5.64945 13.65 4.07945L13.76 3.88945C14.23 3.09945 15.25 2.81945 16.04 3.28945L17.77 4.27945C18.68 4.79945 18.99 5.96945 18.47 6.86945C17.56 8.43945 18.3 9.71945 20.11 9.71945C21.15 9.71945 22.01 10.5694 22.01 11.6194V13.3794C22.01 14.4194 21.16 15.2794 20.11 15.2794C18.3 15.2794 17.56 16.5594 18.47 18.1294C18.99 19.0394 18.68 20.1994 17.77 20.7194L16.04 21.7094C15.25 22.1794 14.23 21.8994 13.76 21.1094L13.65 20.9194C12.75 19.3494 11.27 19.3494 10.36 20.9194L10.25 21.1094C9.78 21.8994 8.76 22.1794 7.97 21.7094L6.24 20.7194C5.33 20.1994 5.02 19.0294 5.54 18.1294C6.45 16.5594 5.71 15.2794 3.9 15.2794C2.85 15.2794 2 14.4194 2 13.3794Z" stroke="#001973" stroke-width="1.5" stroke-miterlimit="10" stroke-linecap="round" stroke-linejoin="round"/>
</svg>
