<svg width="16" height="17" viewBox="0 0 16 17" fill="none" xmlns="http://www.w3.org/2000/svg">
<path d="M1.33337 1.83594H2.49338C3.21338 1.83594 3.78004 2.45594 3.72004 3.16927L3.16671 9.80927C3.07337 10.8959 3.93337 11.8293 5.0267 11.8293H12.1267C13.0867 11.8293 13.9267 11.0426 14 10.0893L14.36 5.08927C14.44 3.98261 13.6 3.0826 12.4867 3.0826H3.88005" stroke="#6F7E80" stroke-width="1.5" stroke-miterlimit="10" stroke-linecap="round" stroke-linejoin="round"/>
<path d="M10.8333 15.1667C11.2936 15.1667 11.6667 14.7936 11.6667 14.3333C11.6667 13.8731 11.2936 13.5 10.8333 13.5C10.3731 13.5 10 13.8731 10 14.3333C10 14.7936 10.3731 15.1667 10.8333 15.1667Z" stroke="#6F7E80" stroke-width="1.5" stroke-miterlimit="10" stroke-linecap="round" stroke-linejoin="round"/>
<path d="M5.49996 15.1667C5.9602 15.1667 6.33329 14.7936 6.33329 14.3333C6.33329 13.8731 5.9602 13.5 5.49996 13.5C5.03972 13.5 4.66663 13.8731 4.66663 14.3333C4.66663 14.7936 5.03972 15.1667 5.49996 15.1667Z" stroke="#6F7E80" stroke-width="1.5" stroke-miterlimit="10" stroke-linecap="round" stroke-linejoin="round"/>
<path d="M6 5.83594H14" stroke="#6F7E80" stroke-width="1.5" stroke-miterlimit="10" stroke-linecap="round" stroke-linejoin="round"/>
</svg>
