<svg width="128" height="128" viewBox="0 0 128 128" fill="none" xmlns="http://www.w3.org/2000/svg">
<path d="M10.6666 10.6641H19.9467C25.7067 10.6641 30.24 15.6241 29.76 21.3307L25.3333 74.4507C24.5866 83.144 31.4666 90.6107 40.2133 90.6107H97.0133C104.693 90.6107 111.413 84.3174 112 76.6908L114.88 36.6908C115.52 27.8374 108.8 20.6374 99.8933 20.6374H31.04" stroke="#001973" stroke-width="1.5" stroke-miterlimit="10" stroke-linecap="round" stroke-linejoin="round"/>
<path d="M86.6667 117.333C90.3486 117.333 93.3333 114.349 93.3333 110.667C93.3333 106.985 90.3486 104 86.6667 104C82.9848 104 80 106.985 80 110.667C80 114.349 82.9848 117.333 86.6667 117.333Z" stroke="#001973" stroke-width="1.5" stroke-miterlimit="10" stroke-linecap="round" stroke-linejoin="round"/>
<path d="M44 117.333C47.6819 117.333 50.6667 114.349 50.6667 110.667C50.6667 106.985 47.6819 104 44 104C40.3181 104 37.3334 106.985 37.3334 110.667C37.3334 114.349 40.3181 117.333 44 117.333Z" stroke="#001973" stroke-width="1.5" stroke-miterlimit="10" stroke-linecap="round" stroke-linejoin="round"/>
<path d="M48 42.6641H112" stroke="#001973" stroke-width="1.5" stroke-miterlimit="10" stroke-linecap="round" stroke-linejoin="round"/>
</svg>
