<svg width="32" height="32" viewBox="0 0 32 32" fill="none" xmlns="http://www.w3.org/2000/svg">
<path d="M28.0133 14.9609V20.9476C28.0133 26.9343 25.6266 29.3343 19.6266 29.3343H12.44C11.6667 29.3343 10.96 29.2943 10.3066 29.201" stroke="#001973" stroke-width="1.5" stroke-linecap="round" stroke-linejoin="round"/>
<path d="M4.05371 20.6943V14.9609" stroke="#001973" stroke-width="1.5" stroke-linecap="round" stroke-linejoin="round"/>
<path d="M16.0405 15.9993C18.4805 15.9993 20.2805 14.0128 20.0405 11.5728L19.1471 2.66602H12.9205L12.0272 11.5728C11.7872 14.0128 13.6005 15.9993 16.0405 15.9993Z" stroke="#001973" stroke-width="1.5" stroke-linecap="round" stroke-linejoin="round"/>
<path d="M24.4404 15.9993C27.1338 15.9993 29.1071 13.8126 28.8404 11.1326L28.467 7.46598C27.987 3.99932 26.6537 2.66602 23.1604 2.66602H19.0938L20.0271 12.0127C20.2671 14.2127 22.2404 15.9993 24.4404 15.9993Z" stroke="#001973" stroke-width="1.5" stroke-linecap="round" stroke-linejoin="round"/>
<path d="M7.56038 15.9993C9.76038 15.9993 11.747 14.2127 11.9604 12.0127L12.2537 9.06608L12.8937 2.66602H8.82706C5.33373 2.66602 4.00042 3.99932 3.52042 7.46598L3.14705 11.1326C2.88038 13.8126 4.86704 15.9993 7.56038 15.9993Z" stroke="#001973" stroke-width="1.5" stroke-linecap="round" stroke-linejoin="round"/>
<path d="M11.9997 25.3333C11.9997 26.3333 11.7197 27.2801 11.2263 28.0801C10.973 28.5067 10.6663 28.8934 10.3063 29.2C10.2663 29.2534 10.2263 29.2933 10.173 29.3333C9.23968 30.1733 8.01301 30.6667 6.66634 30.6667C5.03967 30.6667 3.5863 29.9333 2.6263 28.7866C2.59964 28.7466 2.55971 28.72 2.53304 28.68C2.37304 28.4933 2.22636 28.2934 2.10636 28.0801C1.61303 27.2801 1.33301 26.3333 1.33301 25.3333C1.33301 23.6533 2.10634 22.1467 3.33301 21.1733C3.55967 20.9867 3.79965 20.8267 4.05298 20.6934C4.82631 20.2534 5.71967 20 6.66634 20C7.99967 20 9.19964 20.48 10.133 21.2933C10.293 21.4133 10.4397 21.56 10.573 21.7067C11.453 22.6667 11.9997 23.9333 11.9997 25.3333Z" stroke="#001973" stroke-width="1.5" stroke-miterlimit="10" stroke-linecap="round" stroke-linejoin="round"/>
<path d="M8.65299 25.3066H4.67969" stroke="#001973" stroke-width="1.5" stroke-miterlimit="10" stroke-linecap="round" stroke-linejoin="round"/>
<path d="M6.66602 23.3594V27.346" stroke="#001973" stroke-width="1.5" stroke-miterlimit="10" stroke-linecap="round" stroke-linejoin="round"/>
</svg>
