<svg width="192" height="192" viewBox="0 0 192 192" fill="none" xmlns="http://www.w3.org/2000/svg">
<path d="M24.0801 89.7617V125.682C24.0801 161.602 38.4801 176.002 74.4001 176.002H117.52C153.44 176.002 167.84 161.602 167.84 125.682V89.7617" stroke="#001973" stroke-width="1.5" stroke-linecap="round" stroke-linejoin="round"/>
<path d="M95.9999 96C110.64 96 121.44 84.08 120 69.44L114.72 16H77.3599L71.9999 69.44C70.5599 84.08 81.3599 96 95.9999 96Z" stroke="#001973" stroke-width="1.5" stroke-linecap="round" stroke-linejoin="round"/>
<path d="M146.48 96C162.64 96 174.48 82.88 172.88 66.8L170.64 44.8C167.76 24 159.76 16 138.8 16H114.4L120 72.08C121.36 85.28 133.28 96 146.48 96Z" stroke="#292D32" stroke-width="1.5" stroke-linecap="round" stroke-linejoin="round"/>
<path d="M45.12 96C58.32 96 70.24 85.28 71.52 72.08L73.28 54.4L77.12 16H52.72C31.76 16 23.76 24 20.88 44.8L18.72 66.8C17.12 82.88 28.96 96 45.12 96Z" stroke="#292D32" stroke-width="1.5" stroke-linecap="round" stroke-linejoin="round"/>
<path d="M96 136C82.64 136 76 142.64 76 156V176H116V156C116 142.64 109.36 136 96 136Z" stroke="#292D32" stroke-width="1.5" stroke-linecap="round" stroke-linejoin="round"/>
</svg>
