<svg width="24" height="25" viewBox="0 0 24 25" fill="none" xmlns="http://www.w3.org/2000/svg">
<path d="M4.40476 16.0264L8.93476 20.5564C10.7948 22.4164 13.8148 22.4164 15.6848 20.5564L20.0748 16.1664C21.9348 14.3064 21.9348 11.2864 20.0748 9.41637L15.5348 4.89637C14.5848 3.94637 13.2748 3.43637 11.9348 3.50637L6.93476 3.74637C4.93476 3.83637 3.34476 5.42637 3.24476 7.41637L3.00476 12.4164C2.94476 13.7664 3.45476 15.0764 4.40476 16.0264Z" stroke="#001973" stroke-width="1.5" stroke-linecap="round" stroke-linejoin="round"/>
<path d="M9.73486 12.7266C11.1156 12.7266 12.2349 11.6073 12.2349 10.2266C12.2349 8.84585 11.1156 7.72656 9.73486 7.72656C8.35415 7.72656 7.23486 8.84585 7.23486 10.2266C7.23486 11.6073 8.35415 12.7266 9.73486 12.7266Z" stroke="#001973" stroke-width="1.5" stroke-linecap="round"/>
<path d="M13.2349 17.7266L17.2349 13.7266" stroke="#292D32" stroke-width="1.5" stroke-miterlimit="10" stroke-linecap="round" stroke-linejoin="round"/>
</svg>
