<svg width="30" height="30" viewBox="0 0 32 32" fill="none" xmlns="http://www.w3.org/2000/svg">
<path d="M31.7432 3.50022C31.5541 3.37332 31.3162 3.39824 31.1498 3.5624C30.872 3.83663 30.5731 4.08067 30.2585 4.29221C30.6665 3.36032 30.9168 2.34523 30.9933 1.28543C31.0111 1.03784 30.8864 0.793442 30.69 0.69233C30.4939 0.591434 30.2536 0.646035 30.1058 0.826087C29.4126 1.67009 28.5488 2.30182 27.5985 2.66236C26.3373 0.917955 24.6147 0 22.5824 0C18.6607 0 15.4701 3.68691 15.4701 8.21869C15.4701 8.40156 15.4755 8.58566 15.4861 8.76961C14.9149 8.85201 14.3391 8.89376 13.7684 8.89376C11.5288 8.89376 9.30567 8.25877 7.33943 7.05742C7.0878 6.90373 6.77593 7.01488 6.64293 7.30558C6.50987 7.59635 6.60605 7.95674 6.85768 8.11043C8.97179 9.40214 11.3615 10.0849 13.7685 10.0849C14.5545 10.0849 15.3493 10.0113 16.131 9.86639C16.4078 9.81511 16.5984 9.51733 16.5598 9.1963C16.5207 8.87209 16.5009 8.54319 16.5009 8.21876C16.5009 4.34378 19.2291 1.19117 22.5824 1.19117C26.7834 1.19117 28.6638 5.75762 28.6638 10.2833C28.6638 12.2404 28.4795 14.1122 28.116 15.8467C28.0508 16.1582 28.2182 16.4812 28.4861 16.5628C28.7615 16.6467 29.0509 16.4465 29.1179 16.127C29.5006 14.3007 29.6947 12.3347 29.6947 10.2833C29.6947 9.7873 29.6738 9.29908 29.6341 8.82067C30.8551 7.60971 31.6921 5.94345 31.991 4.12653C32.0316 3.87809 31.9324 3.62711 31.7432 3.50022ZM28.7543 4.83179C28.5962 4.42337 28.4191 4.03517 28.2237 3.6698C28.7388 3.44374 29.2292 3.14871 29.6848 2.79178C29.477 3.52261 29.1631 4.20916 28.7543 4.83179ZM29.4495 7.37693C29.3739 6.9433 29.2803 6.52217 29.1711 6.1144C29.6482 5.95544 30.111 5.73877 30.5495 5.46815C30.2765 6.16662 29.9046 6.81294 29.4495 7.37693Z" fill="#001973"/>
<path d="M28.1641 17.8171C27.8976 17.7014 27.6005 17.8571 27.5003 18.165C24.6649 26.8832 17.2931 30.0852 13.3843 30.6028C9.06917 31.1741 4.8865 30.5033 2.04795 28.8431C4.78131 28.3117 7.38992 27.0767 9.66691 25.2253C9.9926 24.9604 9.93591 24.3655 9.56873 24.1885C7.7248 23.2997 6.0643 21.9494 4.71325 20.2489H7.17155C7.43311 20.2489 7.65855 20.0129 7.68436 19.7122C7.71017 19.4115 7.52936 19.1288 7.27286 19.0694C7.2248 19.0583 2.75719 17.9612 1.42914 12.6829L3.66163 13.8439C3.88219 13.9587 4.14975 13.8757 4.29106 13.649C4.43681 13.4153 4.41425 13.0847 4.23831 12.8805C4.1995 12.8355 0.600389 8.57554 2.11076 3.52477C2.91494 4.71039 3.84888 5.76658 4.89631 6.67384C5.12412 6.87108 5.44712 6.81771 5.61781 6.5546C5.78849 6.29142 5.74231 5.91817 5.51462 5.72086C4.30894 4.67644 3.26469 3.41983 2.41082 1.98606C2.19126 1.61722 1.69314 1.66041 1.5232 2.06211C0.43439 4.63693 0.435078 7.47429 1.52507 10.2676C1.74751 10.8376 1.99313 11.35 2.23363 11.7951L0.907888 11.1057C0.538577 10.9135 0.120204 11.2884 0.188454 11.7491C0.733701 15.4357 2.57319 17.548 4.02025 18.6708C4.20125 18.8112 4.38037 18.9399 4.55587 19.0578H3.60138C3.18082 19.0578 2.93575 19.6365 3.19532 20.0202C4.56844 22.0498 6.32449 23.6992 8.31323 24.836C5.94812 26.5533 3.25357 27.5995 0.465577 27.8751C-0.000920679 27.9211 -0.171982 28.6381 0.210078 28.9532C2.60232 30.9266 6.23949 32.0001 10.3081 32C11.3487 32 12.4184 31.9297 13.5017 31.7862C16.2038 31.4285 19.1586 30.1694 21.6084 28.3319C24.7984 25.9393 27.1694 22.5685 28.4653 18.5842C28.5653 18.2761 28.4305 17.9328 28.1641 17.8171Z" fill="#001973"/>
<path d="M22.5822 3.81157C21.6918 3.81157 20.9674 4.64871 20.9674 5.67767C20.9674 6.70663 21.6918 7.54377 22.5822 7.54377C23.4727 7.54377 24.1971 6.70663 24.1971 5.67767C24.1971 4.64864 23.4727 3.81157 22.5822 3.81157ZM22.5822 6.35259C22.2602 6.35259 21.9981 6.04983 21.9981 5.6776C21.9981 5.30543 22.2601 5.0026 22.5822 5.0026C22.9044 5.0026 23.1664 5.30536 23.1664 5.6776C23.1664 6.04983 22.9044 6.35259 22.5822 6.35259Z" fill="#001973"/>
</svg>
