<svg width="168" height="37" viewBox="0 0 168 37" fill="none" xmlns="http://www.w3.org/2000/svg">
<g clip-path="url(#clip0_3003_36489)">
<path d="M0.928955 1.40487C0.928955 1.55742 2.54678 6.28623 4.56143 11.8693C6.54556 17.4523 8.52969 23.1574 8.98756 24.5608L9.84226 27.0625H13.4747H17.1377L17.6872 25.7506C17.9924 25.0489 20.8923 19.3439 24.0975 13.0591C27.3026 6.77437 29.9277 1.52691 29.9277 1.37437C29.9277 1.25233 28.4625 1.1303 26.6616 1.1303H23.3648L21.686 4.7303C20.7702 6.68284 18.6335 11.1676 16.9546 14.6456L13.8716 21.0218L10.758 11.4422C9.04861 6.1642 7.64446 1.67945 7.64446 1.4964C7.64446 1.22182 6.66766 1.1303 4.28671 1.1303C2.39416 1.1303 0.928955 1.25233 0.928955 1.40487Z" fill="#959595"/>
<path d="M161.491 4.08894V7.07877H157.736C154.317 7.10927 153.859 7.17029 152.15 7.96351C148.975 9.39741 147.022 12.0516 146.228 15.9262C145.465 19.5872 146.594 23.6144 148.914 25.5364C151.845 27.9466 156.759 28.0076 159.812 25.6584L160.88 24.8652V25.9635V27.0618H163.597H166.314L166.497 23.9194C166.588 22.211 166.802 17.2381 166.985 12.8754C167.168 8.51266 167.412 4.08894 167.504 3.05165L167.687 1.12961H164.574H161.491V4.08894ZM160.544 11.411C161.246 11.594 161.246 11.6245 161.033 14.6449C160.758 18.5194 160.178 20.5025 158.927 21.7533C157.614 23.0652 156.149 23.3398 154.409 22.5466C152.699 21.8144 152.028 20.5025 152.028 18.0008C152.028 15.9262 152.76 14.1872 154.104 12.9364C155.538 11.5635 158.53 10.8618 160.544 11.411Z" fill="#959595"/>
<path d="M32.797 7.38413C29.3172 7.9943 29.4088 7.93329 29.1951 10.0079C29.073 11.0452 29.0425 11.9299 29.1035 11.9909C29.1646 12.0824 30.3245 11.8384 31.6371 11.4723C34.8117 10.5875 38.1694 10.5265 39.0547 11.3197C40.642 12.7536 39.3905 13.8519 34.9033 14.9807C29.5003 16.3536 27.6383 17.4519 26.692 19.9231C26.2342 21.1129 26.2342 21.5401 26.5394 22.8519C27.3025 26.1468 29.2256 27.3672 33.7128 27.3672C37.2842 27.3672 37.3453 27.3367 37.8947 25.2011C38.1694 24.1943 38.261 23.3096 38.1389 23.218C38.0168 23.157 37.2842 23.2485 36.5211 23.4316C33.7738 24.1028 31.515 22.8824 32.3086 21.1129C32.736 20.1977 33.6823 19.7096 36.6127 18.8248C37.8337 18.4587 39.0547 18.0926 39.3294 18.0011C39.7262 17.8485 39.7568 18.2757 39.5736 21.4485C39.4515 23.4316 39.2683 25.5367 39.1768 26.0553L39.0241 27.0621H42.1072H45.1902V24.9875C45.1902 23.8587 45.3428 20.2587 45.5565 16.9943C45.8618 11.5943 45.8618 10.9536 45.4039 9.97736C44.7629 8.66549 43.3587 7.65871 41.5272 7.2621C39.6957 6.83498 35.4527 6.896 32.797 7.38413Z" fill="#959595"/>
<path d="M57.5223 7.35476C56.8202 7.56832 55.7519 8.14798 55.1413 8.60561L54.0424 9.42934L54.2256 8.48358L54.4393 7.53782H51.3868H48.3343L48.1206 12.3276C47.9374 16.4158 47.5101 23.4022 47.2354 26.148L47.1743 26.9107L50.2573 27.0022L53.3404 27.0938L53.554 22.426C53.8593 15.1954 54.5614 13.2734 57.2781 12.2361C58.5602 11.748 58.8044 11.748 59.9338 12.1446C62.4674 13.0293 62.62 13.67 62.1926 22.0904L61.9484 27.0632H64.9704H68.0229L68.2366 19.5887C68.3587 15.47 68.3892 11.687 68.2671 11.1683C67.9924 9.79544 66.9851 8.51409 65.5504 7.78188C63.9326 6.95815 59.4454 6.71409 57.5223 7.35476Z" fill="#959595"/>
<path d="M78.1574 7.2623C74.6775 7.93349 71.4419 10.6487 70.1903 13.8826C69.3967 15.9572 69.2441 19.7708 69.8851 21.9369C70.404 23.7064 72.0218 25.6589 73.7007 26.5131C75.288 27.3369 78.5542 27.5809 80.4467 27.0623C81.2099 26.8487 82.4003 26.2691 83.1024 25.7809L84.3539 24.8657L84.1097 26.6657C83.8045 29.1064 83.255 30.2962 82.0646 30.9979C80.172 32.1572 78.7068 32.1267 71.9913 30.8148L71.1671 30.6623L71.3503 32.8894C71.4419 34.1403 71.6555 35.2386 71.8387 35.3301C72.3576 35.6962 77.3637 36.2148 80.1415 36.2148C83.5603 36.2148 86.0023 35.5437 87.5591 34.2013C89.5737 32.4928 89.7874 31.5165 90.0927 23.4013C90.2453 19.4657 90.4895 14.4013 90.6726 12.1437C90.8558 9.91654 90.9474 7.9945 90.8558 7.93349C90.7947 7.87247 89.5127 7.59789 88.0475 7.35382C85.0865 6.8962 80.3246 6.83518 78.1574 7.2623ZM83.7434 11.5335L84.9034 11.8386L84.7202 14.3403C84.3234 19.6182 83.5298 21.5403 81.393 22.5165C79.8362 23.2182 79.2257 23.2182 77.669 22.5165C76.0817 21.7843 75.4101 20.442 75.4101 18.0013C75.4406 14.9199 77.0585 12.4792 79.7141 11.6555C81.3625 11.1369 82.2477 11.1064 83.7434 11.5335Z" fill="#959595"/>
<path d="M119.183 7.38413C115.703 7.9943 115.795 7.93329 115.581 10.0079C115.459 11.0452 115.428 11.9299 115.489 11.9909C115.551 12.0824 116.71 11.8384 118.023 11.4723C121.198 10.5875 124.555 10.5265 125.441 11.3197C127.028 12.7536 125.776 13.8519 121.289 14.9807C115.886 16.3536 114.024 17.4519 113.078 19.9231C112.62 21.1129 112.62 21.5401 112.925 22.8519C113.689 26.1468 115.612 27.3672 120.099 27.3672C123.67 27.3672 123.731 27.3367 124.281 25.2011C124.555 24.1943 124.647 23.3096 124.525 23.218C124.403 23.157 123.67 23.2485 122.907 23.4316C120.16 24.1028 117.901 22.8824 118.695 21.1129C119.122 20.1977 120.068 19.7096 122.999 18.8248C124.22 18.4587 125.441 18.0926 125.715 18.0011C126.112 17.8485 126.143 18.2757 125.96 21.4485C125.837 23.4316 125.654 25.5367 125.563 26.0553L125.41 27.0621H128.493H131.576V24.9875C131.576 23.8587 131.729 20.2587 131.942 16.9943C132.248 11.5943 132.248 10.9536 131.79 9.97736C131.149 8.66549 129.745 7.65871 127.913 7.2621C126.082 6.83498 121.839 6.896 119.183 7.38413Z" fill="#959595"/>
<path d="M142.596 7.23199C142.199 7.41504 141.497 7.81165 141.008 8.17775L140.123 8.78792V8.17775C140.123 7.56758 139.94 7.53707 137.284 7.53707H134.415L134.232 14.7676C134.11 18.7642 133.927 23.1574 133.835 24.5303L133.621 27.0625H136.674H139.757L139.879 21.4794C140.032 15.5913 140.215 14.6761 141.558 13.2727C142.718 12.0523 144.183 11.6557 145.648 12.1133C146.32 12.3269 146.9 12.4489 146.991 12.3879C147.052 12.2964 147.022 11.0761 146.9 9.67267L146.686 7.07945L145.007 7.01843C144.091 6.98792 142.993 7.07945 142.596 7.23199Z" fill="#959595"/>
<path d="M92.6871 9.12158C92.5956 10.0063 92.4429 13.5453 92.3208 16.9928C92.1377 22.4538 92.1682 23.3995 92.6261 24.2233C93.786 26.4809 96.5028 27.5487 100.41 27.2741C102.821 27.1216 104.287 26.6029 105.538 25.4436L106.21 24.8334L106.027 25.9623L105.843 27.0606H108.774H111.674L111.857 24.2538C112.101 19.8911 112.65 8.99955 112.65 8.20633C112.65 7.56565 112.559 7.53514 109.751 7.53514C107.644 7.53514 106.851 7.62667 106.851 7.90124C106.82 8.1148 106.698 10.5555 106.545 13.3012C106.24 18.7317 105.752 20.4402 104.073 21.6606C102.913 22.4843 101.112 22.6368 99.83 21.9656C97.9985 21.0199 97.8459 20.3487 98.2732 14.5826C98.4564 11.8063 98.609 9.06056 98.609 8.51141V7.53514H95.7396H92.8703L92.6871 9.12158Z" fill="#959595"/>
</g>
<defs>
<clipPath id="clip0_3003_36489">
<rect width="166.667" height="36" fill="white" transform="translate(0.928955 0.214844)"/>
</clipPath>
</defs>
</svg>
