<svg width="32" height="32" viewBox="0 0 32 32" fill="none" xmlns="http://www.w3.org/2000/svg">
<path d="M23.6682 9.39931C23.3482 9.34597 23.0149 9.33266 22.6682 9.33266H9.33488C8.96155 9.33266 8.60155 9.35932 8.25488 9.41265C8.44155 9.03932 8.70822 8.6927 9.02822 8.3727L13.3616 4.02602C15.1882 2.21268 18.1482 2.21268 19.9749 4.02602L22.3082 6.38596C23.1615 7.22596 23.6149 8.29264 23.6682 9.39931Z" stroke="#FEFEFE" stroke-width="1.5" stroke-linecap="round" stroke-linejoin="round"/>
<path d="M11.9997 25.3333C11.9997 26.3333 11.7197 27.28 11.2263 28.08C10.3063 29.6267 8.61301 30.6667 6.66634 30.6667C4.71967 30.6667 3.02634 29.6267 2.10634 28.08C1.61301 27.28 1.33301 26.3333 1.33301 25.3333C1.33301 22.3867 3.71967 20 6.66634 20C9.61301 20 11.9997 22.3867 11.9997 25.3333Z" stroke="#FEFEFE" stroke-width="1.5" stroke-miterlimit="10" stroke-linecap="round" stroke-linejoin="round"/>
<path d="M8.65497 25.3066H4.68164" stroke="#FEFEFE" stroke-width="1.5" stroke-miterlimit="10" stroke-linecap="round" stroke-linejoin="round"/>
<path d="M6.66602 23.3594V27.346" stroke="#FEFEFE" stroke-width="1.5" stroke-miterlimit="10" stroke-linecap="round" stroke-linejoin="round"/>
<path d="M29.3337 16.0007V22.6673C29.3337 26.6673 26.667 29.334 22.667 29.334H10.1737C10.587 28.9873 10.947 28.5606 11.227 28.0806C11.7203 27.2806 12.0003 26.334 12.0003 25.334C12.0003 22.3873 9.61366 20.0007 6.66699 20.0007C5.06699 20.0007 3.64033 20.7073 2.66699 21.814V16.0007C2.66699 12.374 4.85366 9.84065 8.25366 9.41398C8.60033 9.36065 8.96033 9.33398 9.33366 9.33398H22.667C23.0137 9.33398 23.347 9.3473 23.667 9.40063C27.107 9.80063 29.3337 12.3473 29.3337 16.0007Z" stroke="#FEFEFE" stroke-width="1.5" stroke-linecap="round" stroke-linejoin="round"/>
<path d="M29.3337 16.666H25.3337C23.867 16.666 22.667 17.866 22.667 19.3327C22.667 20.7993 23.867 21.9993 25.3337 21.9993H29.3337" stroke="#FEFEFE" stroke-width="1.5" stroke-linecap="round" stroke-linejoin="round"/>
</svg>
