<svg width="1395" height="632" viewBox="0 0 1395 632" fill="none" xmlns="http://www.w3.org/2000/svg">
<g filter="url(#filter0_f_1270_14784)">
<path fill-rule="evenodd" clip-rule="evenodd" d="M590.456 138.722C627.61 140.075 671.511 128.291 700.258 151.867C732.044 177.934 730.713 227.11 745.162 265.594C755.046 291.917 755.405 322.361 772.619 344.593C794.73 373.15 837.307 380.555 857.408 410.562C878.93 442.689 904.505 484.615 890.588 520.693C876.066 558.336 814.475 553.914 789.794 585.832C765.483 617.272 790.277 683.751 753.279 698.266C711.745 714.561 674.111 640.007 630.293 648.406C586.181 656.861 578.328 741.275 533.422 740.408C493.099 739.63 491.825 670.574 460.534 645.131C433.779 623.376 388.316 631.116 366.334 604.548C344.547 578.215 347.412 539.279 344.761 505.205C342.355 474.269 352.392 444.166 351.448 413.151C350.385 378.229 335.382 344.767 338.819 309.998C342.734 270.387 347.354 227.163 372.853 196.599C398.103 166.332 439.419 153.885 477.511 143.754C514.244 133.984 552.472 137.339 590.456 138.722Z" fill="#001973" fill-opacity="0.16"/>
</g>
<defs>
<filter id="filter0_f_1270_14784" x="-161.691" y="-363.047" width="1556.24" height="1603.46" filterUnits="userSpaceOnUse" color-interpolation-filters="sRGB">
<feFlood flood-opacity="0" result="BackgroundImageFix"/>
<feBlend mode="normal" in="SourceGraphic" in2="BackgroundImageFix" result="shape"/>
<feGaussianBlur stdDeviation="250" result="effect1_foregroundBlur_1270_14784"/>
</filter>
</defs>
</svg>
